<svg width="58" height="52" viewBox="0 0 58 52" fill="none" xmlns="http://www.w3.org/2000/svg">
<path d="M21.8607 20.9638C24.0614 20.9638 25.8454 19.1797 25.8454 16.979C25.8454 14.7783 24.0614 12.9943 21.8607 12.9943C19.66 12.9943 17.876 14.7783 17.876 16.979C17.876 19.1797 19.66 20.9638 21.8607 20.9638Z" fill="#03014E"/>
<path d="M54.5687 31.645C52.687 29.874 50.3072 28.7118 47.7061 28.3798V8.12405C47.7061 5.96566 46.8206 4.02863 45.437 2.5897C43.9981 1.15077 42.0611 0.320618 39.9027 0.320618H7.80343C5.64504 0.320618 3.70801 1.20611 2.26908 2.5897C0.830153 4.02863 0 5.96566 0 8.12405V33.6374V36.0172V41.1641C0 43.3225 0.885496 45.2595 2.26908 46.6985C3.70801 48.1374 5.64504 48.9676 7.80343 48.9676H38.8511C40.8988 50.6279 43.4447 51.6794 46.2672 51.6794C49.5324 51.6794 52.4656 50.3511 54.5687 48.2481C56.6718 46.145 58 43.2118 58 39.9466C58 36.6813 56.6718 33.7481 54.5687 31.645ZM2.93321 8.12405C2.93321 6.79581 3.48664 5.57825 4.37214 4.69275C5.25763 3.80726 6.47519 3.25382 7.80343 3.25382H39.9027C41.2309 3.25382 42.4485 3.80726 43.334 4.69275C44.2195 5.57825 44.7729 6.79581 44.7729 8.12405V25.3912L36.5821 17.2557C36.0286 16.7023 35.0878 16.6469 34.479 17.2557L22.1374 29.6527L13.7805 21.2405C13.2271 20.687 12.2863 20.6317 11.6775 21.2405L2.93321 30.0954V8.12405ZM7.74809 46.0897V46.0344C6.41985 46.0344 5.20229 45.4809 4.31679 44.5954C3.48664 43.7099 2.93321 42.4924 2.93321 41.1641V36.0172V34.2462L12.7844 24.395L21.1412 32.7519C21.6947 33.3053 22.6355 33.3053 23.2443 32.7519L35.5859 20.355L43.666 28.4905C43.5 28.5458 43.334 28.6011 43.1679 28.6565C42.9466 28.7118 42.7252 28.7672 42.4485 28.8779C42.2271 28.9332 42.0057 29.0439 41.7843 29.0992C41.6183 29.1546 41.5076 29.2099 41.3416 29.3206C41.1202 29.4313 40.9542 29.4866 40.7882 29.5973C40.5114 29.7634 40.2347 29.9294 39.958 30.0954C39.792 30.2061 39.6813 30.2615 39.5153 30.3721C39.4046 30.4275 39.3492 30.4828 39.2385 30.5382C38.7405 30.8702 38.2977 31.2576 37.9103 31.7004C35.8073 33.8034 34.479 36.7366 34.479 40.0019C34.479 40.8321 34.5897 41.6069 34.7557 42.437C34.8111 42.6584 34.8664 42.8244 34.9218 43.0458C35.0878 43.5992 35.2538 44.1527 35.4752 44.7061V44.7615C35.6966 45.2042 35.9179 45.7023 36.1947 46.0897H7.74809ZM52.4103 46.145C50.8053 47.75 48.6469 48.6908 46.2118 48.6908C43.8874 48.6908 41.729 47.75 40.1794 46.2557C39.958 46.0344 39.7366 45.7576 39.5153 45.5363C39.3492 45.3702 39.1832 45.1489 39.0172 44.9828C38.7958 44.7061 38.6298 44.374 38.4637 44.042C38.3531 43.8206 38.2424 43.6546 38.1317 43.4332C38.021 43.1565 37.9103 42.8244 37.855 42.4924C37.7996 42.271 37.6889 41.9943 37.6336 41.7729C37.5229 41.2195 37.4676 40.6107 37.4676 40.0019C37.4676 37.5668 38.4637 35.4084 40.0134 33.8034C41.6183 32.1985 43.7767 31.2576 46.2118 31.2576C48.6469 31.2576 50.8053 32.2538 52.4103 33.8034C54.0153 35.3531 54.9561 37.5668 54.9561 40.0019C54.9561 42.3817 53.9599 44.5401 52.4103 46.145Z" fill="#03014E"/>
<path d="M51.0267 38.4523H47.6508V35.0763C47.6508 34.2462 46.9866 33.5821 46.1565 33.5821C45.3263 33.5821 44.6622 34.2462 44.6622 35.0763V38.4523H41.2863C40.4561 38.4523 39.792 39.1164 39.792 39.9466C39.792 40.7767 40.4561 41.4408 41.2863 41.4408H44.6622V44.8168C44.6622 45.6469 45.3263 46.3111 46.1565 46.3111C46.9866 46.3111 47.6508 45.6469 47.6508 44.8168V41.4408H51.0267C51.8569 41.4408 52.521 40.7767 52.521 39.9466C52.521 39.1164 51.8569 38.4523 51.0267 38.4523Z" fill="#03014E"/>
</svg>
