<svg width="412" height="412" viewBox="0 0 412 412" fill="none" xmlns="http://www.w3.org/2000/svg">
<g clip-path="url(#clip0)">
<path d="M412 206.001L365.36 154.218L372.662 84.8931L304.461 70.4555L269.673 10.0205L206 38.4776L197.406 206.001L206 373.523L269.673 401.98L304.461 341.546L372.662 327.108L365.36 257.783L412 206.001Z" fill="#FFE829"/>
<path d="M142.327 10.0205L107.539 70.4555L39.3377 84.8939L46.6403 154.218L0 206.001L46.6403 257.783L39.3377 327.108L107.539 341.546L142.327 401.98L206 373.523V38.4776L142.327 10.0205Z" fill="#FEEB4C"/>
<path d="M292.36 160.895L274.329 144.8L206.001 221.351L197.406 240.376L206.001 257.649L292.36 160.895Z" fill="#F7F0EB"/>
<path d="M134.193 187.799L117.103 204.89L188.957 276.744L206.001 257.649V221.352L187.959 241.564L134.193 187.799Z" fill="#FFFBF5"/>
</g>
<defs>
<clipPath id="clip0">
<rect width="412" height="412" fill="white"/>
</clipPath>
</defs>
</svg>
