<svg width="219" height="219" viewBox="0 0 219 219" fill="none" xmlns="http://www.w3.org/2000/svg">
<g clip-path="url(#clip0)">
<path d="M219 114.72C219 145.421 200.796 179.841 169.963 187.142C145.129 193.023 137.654 218.728 109.5 218.728C74.7048 218.728 58.4609 192.031 38.4042 167.998C23.6022 150.26 0 155.573 0 114.72C0 72.4943 35.5955 65.5987 51.9814 50.6832C71.2011 33.1878 60.5144 0.427734 109.5 0.427734C153.024 0.427734 160.248 24.7217 180.333 47.2078C196.531 65.3398 219 66.6263 219 114.72Z" fill="#EFEFEF"/>
<path d="M180.333 47.2078C160.248 24.7217 153.024 0.427734 109.5 0.427734C104.862 0.427734 100.762 0.721802 97.1174 1.26984C129.311 5.73097 136.999 27.1862 154.883 47.2078C171.08 65.3398 193.55 66.6263 193.55 114.72C193.55 145.421 175.346 179.841 144.512 187.142C123.415 192.138 114.843 211.436 95.4817 217.132C99.8108 218.163 104.461 218.726 109.5 218.726C137.654 218.726 145.129 193.022 169.963 187.142C200.796 179.841 219 145.421 219 114.72C219 66.6263 196.531 65.3414 180.333 47.2078Z" fill="#E2E2E2"/>
<path d="M172.496 115.194C172.496 138.593 153.528 157.56 130.13 157.56C106.733 157.56 87.764 138.593 87.764 115.194C87.764 91.7975 106.733 72.8285 130.13 72.8285C153.528 72.8285 172.496 91.7975 172.496 115.194Z" fill="#FCCF3F"/>
<path d="M149.832 77.6823C152.93 83.5686 154.686 90.272 154.686 97.3848C154.686 120.783 135.719 139.751 112.32 139.751C105.208 139.751 98.5059 137.994 92.6195 134.897C99.7105 148.372 113.846 157.56 130.131 157.56C153.528 157.56 172.497 138.593 172.497 115.194C172.496 98.9102 163.308 84.775 149.832 77.6823Z" fill="#EFA335"/>
<path d="M111.441 99.1609C103.974 104.853 99.6921 113.497 99.6921 122.875C99.6921 124.646 101.127 126.083 102.9 126.083C104.671 126.083 106.108 124.646 106.108 122.875C106.108 115.515 109.47 108.731 115.331 104.264C116.74 103.188 117.012 101.176 115.938 99.7657C114.863 98.3572 112.85 98.0865 111.441 99.1609Z" fill="#FFDD88"/>
</g>
<defs>
<clipPath id="clip0">
<rect width="219" height="219" fill="white"/>
</clipPath>
</defs>
</svg>
