<svg width="50" height="40" viewBox="0 0 50 40" fill="none" xmlns="http://www.w3.org/2000/svg">
<path d="M0.971638 20.844C0.971638 31.08 7.43264 38.035 15.4026 38.035C23.3726 38.035 29.8336 31.082 29.8336 20.844C29.8336 10.606 23.3716 0.968018 15.4026 0.968018C7.43364 0.968018 0.971638 10.609 0.971638 20.844Z" fill="#525252"/>
<path d="M41.4466 32.193C34.2086 39.431 24.7216 39.781 19.0866 34.145C13.4516 28.509 13.8006 19.023 21.0386 11.785C28.2766 4.54697 39.6626 2.29797 45.2986 7.93397C50.9346 13.57 48.6856 24.956 41.4476 32.194L41.4466 32.193Z" fill="#525252"/>
<path d="M45.9806 7.253C43.0686 4.341 38.6736 3.214 33.6066 4.079C31.102 4.52679 28.6856 5.37391 26.4496 6.588C23.5086 2.388 19.5196 0 15.4026 0C11.2856 0 7.38064 2.314 4.40664 6.511C1.52613 10.7354 -0.00783535 15.733 0.00663814 20.846C-0.116109 25.5947 1.46691 30.2303 4.46864 33.912C5.81108 35.5059 7.48549 36.7874 9.3748 37.6668C11.2641 38.5461 13.3227 39.0022 15.4066 39.003C17.6806 39.012 19.9226 38.467 21.9386 37.415C23.999 38.4704 26.2828 39.015 28.5976 39.003C28.975 39.003 29.3553 38.9893 29.7386 38.962C34.4633 38.4807 38.8592 36.3226 42.1296 32.879C45.7548 29.2725 48.2029 24.6528 49.1516 19.628C50.0186 14.56 48.8926 10.166 45.9806 7.254V7.253ZM47.2486 19.302C46.3698 23.9337 44.1093 28.1907 40.7646 31.513C34.1166 38.161 25.2866 38.982 19.7646 33.465C18.4194 32.1288 17.4063 30.4957 16.8066 28.697C16.7255 28.4542 16.5512 28.2536 16.3221 28.1393C16.093 28.025 15.8279 28.0063 15.5851 28.0875C15.3423 28.1687 15.1417 28.3429 15.0274 28.572C14.9131 28.8011 14.8945 29.0662 14.9756 29.309C15.6697 31.3914 16.8425 33.282 18.3996 34.829C18.8914 35.3208 19.4181 35.7763 19.9756 36.192C18.5211 36.7781 16.9668 37.0767 15.3986 37.071C7.59864 37.071 1.93264 30.247 1.93264 20.845C1.91815 16.1304 3.33149 11.5219 5.98664 7.626C8.58664 3.955 11.9286 1.933 15.4026 1.933C18.8366 1.933 22.2146 3.975 24.7776 7.567C23.179 8.58078 21.6962 9.76651 20.3556 11.103C17.7906 13.5976 15.903 16.7041 14.8706 20.13C14.836 20.252 14.8258 20.3796 14.8405 20.5056C14.8552 20.6315 14.8946 20.7533 14.9564 20.8641C15.0182 20.9748 15.1012 21.0723 15.2007 21.1509C15.3002 21.2296 15.4141 21.2879 15.5361 21.3225C15.6581 21.3571 15.7858 21.3673 15.9117 21.3526C16.0377 21.3379 16.1595 21.2985 16.2702 21.2367C16.381 21.1749 16.4784 21.0919 16.5571 20.9925C16.6357 20.893 16.694 20.779 16.7286 20.657C17.6713 17.5482 19.3896 14.7305 21.7216 12.469C25.0439 9.12425 29.301 6.86375 33.9326 5.985C38.3656 5.226 42.1596 6.161 44.6166 8.618C47.0736 11.075 48.0066 14.869 47.2486 19.301V19.302Z" fill="white"/>
</svg>
