<svg width="345" height="345" viewBox="0 0 345 345" fill="none" xmlns="http://www.w3.org/2000/svg">
<path d="M342.158 209.849H2.84216V121.64C2.84216 104.762 16.5243 91.0802 33.4017 91.0802H311.599C328.476 91.0802 342.158 104.762 342.158 121.64V209.849H342.158Z" fill="#FFA733"/>
<path d="M340.049 110.455C339.715 110.435 339.388 110.428 339.054 110.428H42.1399C30.4328 110.428 20.9385 119.921 20.9385 131.636V209.849H2.84216V121.641C2.84216 104.762 16.5263 91.0781 33.3983 91.0781H311.603C324.528 91.0781 335.581 99.1102 340.049 110.455Z" fill="#FF9811"/>
<path d="M75.508 194.411C75.508 199.813 74.9023 205.005 73.775 209.849H12.0859C10.9586 205.005 10.3528 199.813 10.3528 194.411C10.3528 167.955 24.9345 141.77 42.927 141.77C47.187 141.77 51.2657 143.239 54.996 145.835C67.0164 154.201 75.508 174.226 75.508 194.411Z" fill="#EBE5DD"/>
<path d="M161.885 194.411C161.885 199.813 161.28 205.005 160.152 209.849H98.4633C98.3656 209.439 98.2686 209.021 98.185 208.597C97.2383 204.114 96.7302 199.353 96.7302 194.411C96.7302 189.469 97.2383 184.542 98.185 179.788C102.299 159.088 114.681 141.77 129.312 141.77C133.572 141.77 137.643 143.239 141.374 145.835C153.394 154.188 161.885 174.219 161.885 194.411Z" fill="#EBE5DD"/>
<path d="M248.27 194.411C248.27 199.813 247.665 205.005 246.537 209.849H184.848C184.751 209.439 184.654 209.021 184.57 208.597C183.623 204.114 183.115 199.353 183.115 194.411C183.115 189.469 183.623 184.542 184.57 179.788C188.684 159.088 201.059 141.77 215.69 141.77C219.956 141.77 224.028 143.239 227.758 145.835C239.771 154.194 248.27 174.219 248.27 194.411Z" fill="#EBE5DD"/>
<path d="M334.648 194.411C334.648 199.813 334.042 205.005 332.915 209.849H271.225C271.128 209.439 271.031 209.021 270.947 208.597C270 204.114 269.492 199.353 269.492 194.411C269.492 189.469 270 184.542 270.947 179.788C275.061 159.088 287.443 141.77 302.074 141.77C306.334 141.77 310.405 143.239 314.136 145.835C326.157 154.194 334.648 174.219 334.648 194.411Z" fill="#EBE5DD"/>
<path d="M34.4839 194.411C34.4839 199.813 35.0897 205.005 36.217 209.849H12.0851C10.9578 205.005 10.3521 199.813 10.3521 194.411C10.3521 167.955 24.9337 141.77 42.9263 141.77C47.1863 141.77 51.265 143.239 54.9953 145.835C42.9755 154.188 34.4839 174.219 34.4839 194.411Z" fill="#D9CCBC"/>
<path d="M207.246 194.411C207.246 199.813 207.851 205.005 208.979 209.849H184.848C184.75 209.439 184.653 209.021 184.569 208.597C183.623 204.114 183.115 199.353 183.115 194.411C183.115 189.469 183.623 184.542 184.569 179.788C188.683 159.088 201.059 141.77 215.689 141.77C219.955 141.77 224.027 143.239 227.758 145.835C215.737 154.194 207.246 174.219 207.246 194.411Z" fill="#D9CCBC"/>
<path d="M120.861 194.411C120.861 199.813 121.467 205.005 122.594 209.849H98.4633C98.3656 209.439 98.2686 209.021 98.185 208.597C97.2383 204.114 96.7302 199.353 96.7302 194.411C96.7302 189.469 97.2383 184.542 98.185 179.788C102.299 159.088 114.681 141.77 129.312 141.77C133.572 141.77 137.643 143.239 141.374 145.835C129.36 154.194 120.861 174.219 120.861 194.411Z" fill="#D9CCBC"/>
<path d="M293.624 194.411C293.624 199.813 294.23 205.005 295.357 209.849H271.226C271.128 209.439 271.031 209.021 270.947 208.597C270.001 204.114 269.493 199.353 269.493 194.411C269.493 189.469 270.001 184.542 270.947 179.788C275.061 159.088 287.444 141.77 302.074 141.77C306.334 141.77 310.406 143.239 314.137 145.835C302.115 154.194 293.624 174.219 293.624 194.411Z" fill="#D9CCBC"/>
<path d="M60.6251 253.92H25.0631C23.1319 253.92 21.4413 252.625 20.9393 250.76L11.8015 216.817C11.0704 214.103 13.1154 211.436 15.9253 211.436H69.9098C72.7271 211.436 74.7728 214.116 74.0296 216.834L64.7449 250.776C64.2368 252.633 62.5496 253.92 60.6251 253.92Z" fill="#FF9811"/>
<path d="M147.006 253.92H111.443C109.512 253.92 107.821 252.625 107.319 250.76L98.1816 216.817C97.4505 214.103 99.4955 211.436 102.305 211.436H156.29C159.107 211.436 161.153 214.116 160.41 216.834L151.125 250.776C150.618 252.633 148.931 253.92 147.006 253.92Z" fill="#FF9811"/>
<path d="M233.387 253.92H197.824C195.893 253.92 194.202 252.625 193.7 250.76L184.562 216.817C183.831 214.103 185.876 211.436 188.686 211.436H242.671C245.488 211.436 247.534 214.116 246.791 216.834L237.506 250.776C236.999 252.633 235.311 253.92 233.387 253.92Z" fill="#FF9811"/>
<path d="M319.767 253.92H284.204C282.273 253.92 280.583 252.625 280.081 250.76L270.943 216.817C270.212 214.103 272.257 211.436 275.067 211.436H329.051C331.868 211.436 333.914 214.116 333.171 216.834L323.886 250.776C323.379 252.633 321.693 253.92 319.767 253.92Z" fill="#FF9811"/>
<path d="M41.9587 250.762L32.8196 216.817C32.0885 214.102 34.1349 211.436 36.9468 211.436H15.9274C13.1155 211.436 11.0691 214.102 11.8002 216.817L20.9393 250.762C21.4406 252.627 23.132 253.923 25.0598 253.923H46.0866C44.1514 253.922 42.4601 252.627 41.9587 250.762Z" fill="#EE8700"/>
<path d="M128.344 250.762L119.205 216.817C118.474 214.102 120.52 211.436 123.325 211.436H102.305C99.4931 211.436 97.4534 214.102 98.1845 216.817L107.316 250.762C107.818 252.627 109.509 253.923 111.443 253.923H132.464C130.536 253.922 128.845 252.627 128.344 250.762Z" fill="#EE8700"/>
<path d="M214.721 250.762L205.582 216.817C204.851 214.102 206.897 211.436 209.709 211.436H188.689C185.877 211.436 183.831 214.102 184.562 216.817L193.701 250.762C194.202 252.627 195.894 253.923 197.822 253.923H218.848C216.914 253.922 215.222 252.627 214.721 250.762Z" fill="#EE8700"/>
<path d="M301.106 250.762L291.967 216.817C291.236 214.102 293.282 211.436 296.087 211.436H275.067C272.255 211.436 270.209 214.102 270.94 216.817L280.079 250.762C280.581 252.627 282.272 253.923 284.206 253.923H305.227C303.299 253.922 301.607 252.627 301.106 250.762Z" fill="#EE8700"/>
<path d="M335.521 219.449H9.48011C4.24445 219.449 0 215.205 0 209.969V209.848C0 204.612 4.24445 200.368 9.48011 200.368H335.52C340.756 200.368 345 204.612 345 209.848V209.969C345.001 215.205 340.756 219.449 335.521 219.449Z" fill="#CC7400"/>
</svg>
