<svg width="211" height="196" viewBox="0 0 211 196" fill="none" xmlns="http://www.w3.org/2000/svg">
<path d="M182.324 34.2055H78.002V115.832H209.658V59.4384C209.658 45.5228 197.417 34.2055 182.324 34.2055Z" fill="#68E1FD"/>
<path d="M209.658 116.278H78.0019C77.8799 116.276 77.7637 116.225 77.6783 116.138C77.5929 116.051 77.5451 115.934 77.5452 115.812V34.2055C77.5452 34.0844 77.5933 33.9682 77.6789 33.8826C77.7646 33.7969 77.8808 33.7488 78.0019 33.7488H182.324C197.65 33.7488 210.124 45.2893 210.124 59.4689V115.832C210.117 115.951 210.065 116.063 209.978 116.146C209.892 116.229 209.777 116.276 209.658 116.278V116.278ZM78.4688 115.345H209.191V59.4384C209.191 45.7664 197.143 34.642 182.324 34.642H78.4688V115.345Z" fill="#231F20"/>
<path d="M104.99 116H50L50 62.5082C50 55.2126 52.6402 48.2157 57.3397 43.057C62.0393 37.8982 68.4132 35 75.0594 35H79.9406C86.5867 35 92.9607 37.8982 97.6603 43.057C102.36 48.2157 105 55.2126 105 62.5082V116H104.99Z" fill="white"/>
<path d="M105.336 116.349H50.6681C50.5344 116.347 50.4068 116.293 50.3122 116.198C50.2176 116.103 50.1632 115.976 50.1606 115.842V60.4534C50.1633 53.3502 52.9863 46.5386 58.009 41.5159C63.0318 36.4932 69.8433 33.6702 76.9465 33.6675H79.281C84.6711 33.7173 89.921 35.3903 94.3461 38.4683C98.7712 41.5463 102.166 45.8864 104.088 50.9225C104.496 51.9129 104.835 52.9303 105.103 53.9675V53.9675C105.145 54.0993 105.172 54.2355 105.184 54.3735C105.655 56.3449 105.891 58.3655 105.884 60.3925V115.751C105.899 115.828 105.895 115.908 105.873 115.983C105.852 116.059 105.813 116.129 105.76 116.187C105.707 116.245 105.641 116.29 105.567 116.318C105.494 116.346 105.414 116.357 105.336 116.349V116.349ZM51.1756 115.334H104.829V60.4534C104.832 58.4813 104.604 56.5156 104.148 54.5968C104.157 54.5159 104.157 54.4342 104.148 54.3532V54.2416C103.877 53.2477 103.545 52.2714 103.154 51.3184C101.298 46.4787 98.0284 42.3096 93.7707 39.3535C89.513 36.3973 84.4641 34.791 79.281 34.7434H76.9567C73.5751 34.7368 70.2255 35.3967 67.0992 36.6855C63.9729 37.9743 61.1314 39.8667 58.737 42.2545C56.3426 44.6423 54.4423 47.4786 53.1449 50.6014C51.8475 53.7241 51.1783 57.0719 51.1756 60.4534V115.334Z" fill="#231F20"/>
<path d="M50.6781 115.832H105.336V164.268C105.336 170.874 102.712 177.209 98.0405 181.88C93.3693 186.551 87.0338 189.176 80.4278 189.176H75.5761C68.97 189.176 62.6346 186.551 57.9634 181.88C53.2922 177.209 50.668 170.874 50.668 164.268V115.832H50.6781Z" fill="white"/>
<path d="M80.4277 189.643H75.5862C68.8563 189.643 62.4021 186.969 57.6433 182.21C52.8846 177.452 50.2112 170.997 50.2112 164.268V115.832C50.2138 115.709 50.2638 115.592 50.3508 115.505C50.4378 115.418 50.5551 115.368 50.6781 115.365H105.336C105.459 115.368 105.576 115.418 105.663 115.505C105.75 115.592 105.8 115.709 105.803 115.832V164.268C105.803 170.997 103.129 177.452 98.3706 182.21C93.6118 186.969 87.1576 189.643 80.4277 189.643V189.643ZM51.1348 116.278V164.247C51.1429 170.729 53.7219 176.942 58.306 181.525C62.89 186.107 69.1047 188.683 75.5862 188.689H80.4277C86.9083 188.683 93.1219 186.106 97.7043 181.524C102.287 176.941 104.864 170.728 104.869 164.247V116.278H51.1348Z" fill="#231F20"/>
<path d="M91.5115 160.218H64.5024C64.3678 160.218 64.2387 160.164 64.1435 160.069C64.0483 159.974 63.9949 159.845 63.9949 159.71C63.9949 159.576 64.0483 159.447 64.1435 159.351C64.2387 159.256 64.3678 159.203 64.5024 159.203H91.5115C91.6461 159.203 91.7752 159.256 91.8704 159.351C91.9656 159.447 92.019 159.576 92.019 159.71C92.019 159.845 91.9656 159.974 91.8704 160.069C91.7752 160.164 91.6461 160.218 91.5115 160.218Z" fill="#D1D3D4"/>
<path d="M134.68 75.2724C137.567 75.2724 139.907 72.932 139.907 70.0451C139.907 67.1582 137.567 64.8179 134.68 64.8179C131.793 64.8179 129.452 67.1582 129.452 70.0451C129.452 72.932 131.793 75.2724 134.68 75.2724Z" fill="white"/>
<path d="M134.68 75.7292C133.553 75.7312 132.45 75.3987 131.512 74.7738C130.574 74.1489 129.843 73.2597 129.411 72.2188C128.978 71.1779 128.865 70.0321 129.084 68.9266C129.304 67.8211 129.846 66.8056 130.643 66.0087C131.44 65.2117 132.456 64.6692 133.561 64.4498C134.667 64.2304 135.812 64.344 136.853 64.7763C137.894 65.2085 138.783 65.9399 139.408 66.8779C140.033 67.8158 140.366 68.9181 140.364 70.0452C140.361 71.5518 139.761 72.996 138.696 74.0614C137.63 75.1268 136.186 75.7265 134.68 75.7292V75.7292ZM134.68 65.2848C133.738 65.2848 132.818 65.564 132.035 66.0871C131.252 66.6102 130.642 67.3536 130.282 68.2235C129.921 69.0933 129.827 70.0505 130.011 70.9739C130.194 71.8973 130.648 72.7455 131.314 73.4113C131.979 74.077 132.828 74.5304 133.751 74.7141C134.674 74.8977 135.631 74.8035 136.501 74.4432C137.371 74.0829 138.115 73.4727 138.638 72.6899C139.161 71.9071 139.44 70.9867 139.44 70.0452C139.44 69.42 139.317 68.801 139.078 68.2235C138.838 67.6459 138.488 67.1211 138.046 66.6791C137.604 66.2371 137.079 65.8864 136.501 65.6472C135.924 65.408 135.305 65.2848 134.68 65.2848V65.2848Z" fill="#231F20"/>
<path d="M134.68 65.2848C134.557 65.2822 134.439 65.2322 134.352 65.1452C134.265 65.0582 134.215 64.9409 134.213 64.8179V0.507528C134.215 0.385466 134.266 0.269302 134.353 0.183925C134.44 0.0985475 134.557 0.0507524 134.68 0.0507813C134.801 0.0507813 134.917 0.0989027 135.003 0.18456C135.088 0.270217 135.136 0.386391 135.136 0.507528V64.8179C135.136 64.94 135.089 65.0573 135.003 65.1445C134.918 65.2318 134.802 65.2822 134.68 65.2848Z" fill="#231F20"/>
<path d="M153.894 5.36936L134.68 14.0172V0.507507H153.894V5.36936Z" fill="white"/>
<path d="M134.679 14.5247C134.582 14.5244 134.487 14.4962 134.405 14.4434C134.333 14.399 134.273 14.3363 134.232 14.2615C134.191 14.1867 134.17 14.1024 134.172 14.0172V0.5075C134.172 0.372903 134.225 0.243818 134.321 0.148643C134.416 0.0534682 134.545 0 134.679 0H153.904C154.037 0.00259847 154.165 0.0569025 154.26 0.15152C154.354 0.246137 154.408 0.373716 154.411 0.5075V5.3592C154.41 5.45797 154.381 5.55441 154.327 5.63714C154.273 5.71987 154.197 5.78544 154.107 5.8261L134.882 14.4739C134.82 14.506 134.75 14.5233 134.679 14.5247V14.5247ZM135.187 1.015V13.195L153.386 5.00395V0.94395L135.187 1.015Z" fill="#231F20"/>
<path d="M145.611 115.832H123.586V121.089H145.611V115.832Z" fill="white"/>
<path d="M145.611 121.546H123.586C123.463 121.546 123.346 121.499 123.259 121.413C123.172 121.328 123.121 121.212 123.119 121.09V115.832C123.121 115.709 123.171 115.592 123.258 115.505C123.345 115.418 123.463 115.368 123.586 115.365H145.611C145.734 115.368 145.851 115.418 145.938 115.505C146.025 115.592 146.075 115.709 146.078 115.832V121.09C146.075 121.212 146.025 121.328 145.938 121.413C145.85 121.499 145.733 121.546 145.611 121.546V121.546ZM124.052 120.623H145.144V116.278H124.052V120.623Z" fill="#231F20"/>
<path d="M127.128 194.667V121.089H140.384V194.667" fill="white"/>
<path d="M140.384 195.134C140.262 195.131 140.146 195.081 140.06 194.993C139.975 194.906 139.927 194.789 139.927 194.667V121.587H127.585V194.667C127.595 194.733 127.59 194.801 127.571 194.865C127.553 194.93 127.52 194.99 127.476 195.04C127.433 195.091 127.378 195.132 127.317 195.16C127.256 195.188 127.19 195.202 127.123 195.202C127.056 195.202 126.989 195.188 126.928 195.16C126.867 195.132 126.813 195.091 126.769 195.04C126.725 194.99 126.693 194.93 126.674 194.865C126.656 194.801 126.651 194.733 126.661 194.667V121.09C126.661 121.028 126.673 120.967 126.697 120.911C126.72 120.854 126.754 120.803 126.798 120.759C126.841 120.716 126.893 120.682 126.949 120.658C127.006 120.635 127.067 120.623 127.128 120.623H140.384C140.445 120.623 140.506 120.635 140.563 120.658C140.619 120.682 140.671 120.716 140.714 120.759C140.757 120.803 140.792 120.854 140.815 120.911C140.839 120.967 140.851 121.028 140.851 121.09V194.667C140.851 194.728 140.839 194.789 140.815 194.846C140.792 194.902 140.757 194.954 140.714 194.997C140.671 195.04 140.619 195.075 140.563 195.098C140.506 195.122 140.445 195.134 140.384 195.134V195.134Z" fill="#231F20"/>
<path d="M127.128 132.579L140.384 142.333V121.089H127.128V132.579Z" fill="#231F20"/>
<path d="M140.384 142.841C140.279 142.842 140.176 142.81 140.089 142.75L126.823 132.995C126.761 132.948 126.71 132.886 126.675 132.816C126.64 132.746 126.621 132.668 126.62 132.589V121.09C126.62 120.955 126.674 120.826 126.769 120.731C126.864 120.635 126.993 120.582 127.128 120.582H140.384C140.518 120.582 140.647 120.635 140.743 120.731C140.838 120.826 140.891 120.955 140.891 121.09V142.333C140.894 142.428 140.869 142.521 140.821 142.602C140.772 142.682 140.702 142.748 140.617 142.79C140.545 142.827 140.465 142.845 140.384 142.841ZM127.635 132.326L139.876 141.339V121.597H127.635V132.326Z" fill="#231F20"/>
<path d="M82.6913 82.9966H82.6L81.585 82.8138C81.5184 82.8025 81.4546 82.7782 81.3973 82.7422C81.3401 82.7062 81.2905 82.6593 81.2514 82.6042C81.2123 82.5491 81.1844 82.4868 81.1694 82.4208C81.1543 82.3549 81.1524 82.2867 81.1638 82.2201C81.1751 82.1534 81.1995 82.0897 81.2354 82.0324C81.2714 81.9752 81.3183 81.9256 81.3734 81.8865C81.4286 81.8474 81.4909 81.8195 81.5568 81.8045C81.6227 81.7894 81.6909 81.7875 81.7575 81.7988L82.7725 81.9714C82.905 81.9984 83.0217 82.0762 83.0975 82.1881C83.1734 82.3 83.2025 82.4372 83.1786 82.5702C83.1616 82.6878 83.1032 82.7953 83.0138 82.8735C82.9244 82.9517 82.8101 82.9953 82.6913 82.9966V82.9966Z" fill="#D1D3D4"/>
<path d="M13.7118 116.898C13.6449 116.912 13.5757 116.912 13.5088 116.898C13.4473 116.871 13.3917 116.833 13.3452 116.785C13.2986 116.737 13.262 116.68 13.2375 116.618C13.2129 116.555 13.201 116.489 13.2022 116.422C13.2035 116.355 13.218 116.289 13.2449 116.228C13.5189 115.598 13.8133 114.979 14.1178 114.36C14.1469 114.3 14.1878 114.246 14.238 114.202C14.2883 114.158 14.3469 114.125 14.4104 114.104C14.4739 114.083 14.5409 114.075 14.6075 114.081C14.674 114.087 14.7388 114.106 14.7978 114.137C14.8579 114.166 14.9116 114.207 14.9559 114.257C15.0001 114.307 15.0341 114.365 15.0558 114.428C15.0775 114.492 15.0865 114.558 15.0823 114.625C15.0781 114.692 15.0607 114.757 15.0313 114.817C14.7268 115.416 14.4426 116.025 14.1787 116.634C14.1333 116.717 14.0655 116.786 13.9829 116.832C13.9004 116.879 13.8065 116.902 13.7118 116.898V116.898ZM15.5388 113.264C15.4497 113.261 15.3627 113.236 15.285 113.193C15.1701 113.125 15.0858 113.015 15.0499 112.886C15.0139 112.758 15.0291 112.62 15.0922 112.503C15.4373 111.904 15.7925 111.315 16.1681 110.737C16.244 110.631 16.3576 110.559 16.4852 110.535C16.6129 110.51 16.745 110.536 16.8543 110.606C16.9636 110.677 17.0418 110.786 17.0728 110.912C17.1037 111.038 17.0851 111.172 17.0207 111.285C16.6553 111.853 16.3102 112.421 16.0057 113C15.9571 113.078 15.8878 113.142 15.8053 113.183C15.7229 113.224 15.6306 113.242 15.5388 113.233V113.264ZM17.7413 109.833C17.6331 109.833 17.5273 109.801 17.4368 109.742C17.3298 109.661 17.2583 109.542 17.2375 109.409C17.2166 109.277 17.2481 109.141 17.3252 109.031C17.7312 108.473 18.1473 107.925 18.5838 107.397C18.6675 107.293 18.7892 107.225 18.9223 107.21C19.0554 107.195 19.1891 107.233 19.2943 107.316C19.3989 107.4 19.4661 107.521 19.4813 107.654C19.4965 107.788 19.4585 107.921 19.3755 108.026C18.9492 108.554 18.5432 109.041 18.1473 109.63C18.1006 109.694 18.0394 109.745 17.9688 109.781C17.8983 109.816 17.8203 109.834 17.7413 109.833V109.833ZM39.9191 109.762C39.1831 109.706 38.4622 109.524 37.7876 109.224C37.6638 109.17 37.5664 109.07 37.5169 108.944C37.4674 108.818 37.4698 108.678 37.5237 108.554C37.5775 108.43 37.6783 108.333 37.804 108.284C37.9296 108.234 38.0698 108.237 38.1936 108.29C38.7607 108.548 39.369 108.702 39.9901 108.747C40.0564 108.751 40.1212 108.768 40.1808 108.797C40.2404 108.827 40.2935 108.868 40.337 108.918C40.3805 108.968 40.4136 109.026 40.4342 109.089C40.4548 109.152 40.4626 109.219 40.457 109.285C40.4545 109.352 40.4384 109.418 40.4097 109.479C40.381 109.54 40.3403 109.594 40.29 109.639C40.2397 109.683 40.181 109.717 40.1172 109.738C40.0534 109.76 39.9861 109.768 39.9191 109.762V109.762ZM41.9491 109.519C41.8145 109.539 41.6774 109.505 41.5679 109.424C41.4585 109.343 41.3857 109.222 41.3655 109.087C41.3453 108.953 41.3794 108.815 41.4603 108.706C41.5412 108.597 41.6622 108.524 41.7968 108.504C42.3691 108.327 42.8934 108.021 43.3295 107.61C43.3767 107.563 43.4328 107.525 43.4946 107.499C43.5565 107.473 43.6228 107.46 43.6898 107.46C43.7568 107.46 43.8231 107.473 43.885 107.499C43.9468 107.525 44.003 107.563 44.0501 107.61C44.1438 107.707 44.1961 107.836 44.1961 107.971C44.1961 108.105 44.1438 108.234 44.0501 108.331C43.4966 108.855 42.8297 109.244 42.1013 109.468L41.9491 109.519ZM36.2448 108.199C36.1263 108.204 36.0101 108.164 35.92 108.087C35.3625 107.631 34.8616 107.11 34.4279 106.534C34.3497 106.426 34.3166 106.291 34.3356 106.159C34.3545 106.026 34.424 105.906 34.5294 105.824C34.5822 105.783 34.6428 105.752 34.7076 105.735C34.7724 105.718 34.84 105.714 34.9063 105.723C34.9727 105.733 35.0365 105.755 35.0938 105.79C35.1511 105.825 35.2008 105.871 35.2399 105.925C35.6268 106.433 36.0694 106.896 36.5594 107.306C36.6116 107.347 36.655 107.399 36.6869 107.457C36.7188 107.516 36.7387 107.58 36.7453 107.646C36.7519 107.712 36.7452 107.779 36.7255 107.843C36.7057 107.906 36.6734 107.965 36.6305 108.016C36.5778 108.069 36.5139 108.109 36.4436 108.134C36.3734 108.158 36.2985 108.167 36.2245 108.158L36.2448 108.199ZM44.6084 106.727H44.5272C44.3951 106.705 44.2768 106.632 44.1973 106.524C44.1178 106.416 44.0832 106.282 44.1009 106.149C44.116 105.993 44.116 105.837 44.1009 105.682C44.0956 105.242 44.0167 104.806 43.8674 104.393C43.823 104.258 43.8339 104.111 43.8977 103.985C43.9614 103.858 44.0729 103.762 44.2075 103.718C44.3421 103.673 44.4888 103.684 44.6154 103.748C44.742 103.812 44.838 103.923 44.8824 104.058C45.0635 104.58 45.1594 105.129 45.1666 105.682C45.1813 105.891 45.1813 106.102 45.1666 106.311C45.1442 106.443 45.071 106.56 44.9627 106.638C44.8544 106.716 44.7199 106.748 44.5881 106.727H44.6084ZM20.3194 106.677C20.1928 106.673 20.0711 106.626 19.9743 106.545C19.9268 106.497 19.889 106.441 19.8632 106.379C19.8375 106.318 19.8242 106.251 19.8242 106.184C19.8242 106.117 19.8375 106.051 19.8632 105.989C19.889 105.927 19.9268 105.871 19.9743 105.824C20.4311 105.316 20.9183 104.809 21.4055 104.332C21.5024 104.238 21.6328 104.186 21.7679 104.188C21.9031 104.19 22.0319 104.245 22.1261 104.342C22.2204 104.439 22.2722 104.569 22.2703 104.704C22.2684 104.84 22.2129 104.968 22.116 105.063C21.6389 105.53 21.172 106.007 20.7254 106.504C20.673 106.564 20.607 106.611 20.533 106.641C20.4589 106.671 20.3788 106.683 20.2991 106.677H20.3194ZM33.8088 104.981C33.7109 104.983 33.6147 104.956 33.5318 104.903C33.449 104.851 33.383 104.776 33.3419 104.687C33.0471 104.039 32.8324 103.357 32.7024 102.657C32.6782 102.523 32.7084 102.384 32.7865 102.272C32.8645 102.159 32.984 102.083 33.1186 102.058C33.2532 102.034 33.3919 102.064 33.5042 102.142C33.6165 102.22 33.6932 102.34 33.7174 102.474C33.8256 103.105 34.0132 103.718 34.2757 104.301C34.3306 104.424 34.3347 104.563 34.2872 104.689C34.2396 104.814 34.1442 104.916 34.0219 104.971C33.9459 104.992 33.8661 104.996 33.7885 104.981H33.8088ZM23.2426 103.835C23.1393 103.834 23.0388 103.801 22.9544 103.741C22.8701 103.682 22.806 103.598 22.7707 103.5C22.7354 103.403 22.7306 103.298 22.7569 103.198C22.7831 103.098 22.8393 103.008 22.9178 102.941C23.4558 102.495 24.0039 102.058 24.5621 101.673C24.6159 101.634 24.6768 101.606 24.7413 101.591C24.8059 101.577 24.8727 101.575 24.9379 101.586C25.0032 101.598 25.0655 101.622 25.1212 101.658C25.1769 101.693 25.225 101.74 25.2625 101.794C25.3014 101.849 25.3292 101.911 25.3441 101.976C25.3591 102.041 25.361 102.109 25.3497 102.175C25.3383 102.241 25.314 102.304 25.2782 102.361C25.2423 102.417 25.1956 102.466 25.1407 102.505C24.6129 102.87 24.1257 103.286 23.5674 103.723C23.4711 103.803 23.3475 103.843 23.2223 103.835H23.2426ZM43.4208 102.941C43.3419 102.942 43.2639 102.924 43.1933 102.889C43.1227 102.854 43.0615 102.802 43.0148 102.738C42.6571 102.274 42.2409 101.858 41.7765 101.5L41.6649 101.419C41.5572 101.338 41.486 101.218 41.467 101.085C41.448 100.951 41.4826 100.816 41.5634 100.708C41.6443 100.601 41.7635 100.53 41.8961 100.509C42.0286 100.488 42.1641 100.52 42.2739 100.597L42.3957 100.688C42.9311 101.103 43.4089 101.588 43.8167 102.129C43.8768 102.203 43.9146 102.292 43.9256 102.387C43.9366 102.481 43.9203 102.577 43.8787 102.662C43.837 102.747 43.7718 102.819 43.6906 102.869C43.6095 102.918 43.5159 102.943 43.4208 102.941V102.941ZM26.5718 101.5C26.4803 101.501 26.3902 101.477 26.3114 101.431C26.2326 101.384 26.1682 101.317 26.1252 101.236C26.0621 101.118 26.047 100.981 26.0829 100.852C26.1189 100.724 26.2031 100.614 26.3181 100.546C26.9229 100.2 27.5464 99.8886 28.1857 99.6121C28.3049 99.5746 28.4338 99.5824 28.5477 99.6341C28.6615 99.6857 28.7523 99.7776 28.8026 99.892C28.8529 100.006 28.8592 100.135 28.8203 100.254C28.7814 100.373 28.7 100.473 28.5917 100.536C28.003 100.8 27.4041 101.094 26.8154 101.429C26.7377 101.481 26.6449 101.506 26.5515 101.5H26.5718ZM33.1186 101.053C32.9849 101.043 32.8604 100.981 32.7714 100.881C32.6824 100.78 32.6359 100.649 32.6415 100.515C32.6955 99.8057 32.8144 99.1024 32.9968 98.4144C33.0133 98.3497 33.0425 98.2889 33.0826 98.2355C33.1227 98.1821 33.173 98.1371 33.2305 98.1032C33.288 98.0692 33.3517 98.047 33.4178 98.0377C33.484 98.0284 33.5513 98.0322 33.6159 98.049C33.7031 98.0735 33.7824 98.12 33.8464 98.1839C33.9104 98.2479 33.9569 98.3273 33.9813 98.4144C34.0274 98.3666 34.0826 98.3285 34.1436 98.3024C34.2046 98.2762 34.2702 98.2626 34.3366 98.2622H34.6614C35.255 98.26 35.8482 98.2939 36.4376 98.3637C36.5715 98.3814 36.6931 98.4508 36.7766 98.557C36.86 98.6632 36.8986 98.7978 36.8842 98.9321C36.8665 99.0652 36.7968 99.186 36.6902 99.2678C36.5837 99.3496 36.4491 99.3858 36.3158 99.3685C35.7665 99.3072 35.2141 99.2767 34.6614 99.2772H34.3569C34.2616 99.2779 34.1678 99.2528 34.0856 99.2046C34.0034 99.1563 33.9358 99.0867 33.89 99.0031C33.7726 99.5243 33.6945 100.054 33.6565 100.587C33.6461 100.719 33.5839 100.843 33.4832 100.93C33.3826 101.018 33.2516 101.062 33.1186 101.053V101.053ZM40.2236 100.505C40.1499 100.521 40.0739 100.521 40.0003 100.505C39.4166 100.221 38.8085 99.9903 38.1834 99.8151C38.0488 99.7788 37.9342 99.6905 37.8647 99.5696C37.7952 99.4487 37.7766 99.3052 37.813 99.1706C37.8493 99.036 37.9376 98.9214 38.0585 98.8519C38.1794 98.7824 38.3229 98.7638 38.4575 98.8001C39.1542 98.9969 39.8332 99.2515 40.4875 99.5614C40.6062 99.6204 40.6971 99.7236 40.7407 99.8488C40.7843 99.9739 40.7772 100.111 40.7209 100.231C40.6683 100.313 40.5937 100.378 40.5058 100.419C40.4178 100.461 40.32 100.476 40.2236 100.465V100.505ZM30.2867 99.9166C30.1765 99.9183 30.0689 99.8833 29.9807 99.8172C29.8925 99.7511 29.8288 99.6575 29.7995 99.5512C29.7614 99.4234 29.7752 99.2856 29.8379 99.1679C29.9006 99.0501 30.0071 98.9617 30.1345 98.9219C30.7989 98.717 31.4773 98.561 32.1645 98.455C32.2311 98.4444 32.2992 98.4469 32.3649 98.4626C32.4305 98.4782 32.4925 98.5067 32.5471 98.5462C32.6018 98.5858 32.6481 98.6358 32.6835 98.6933C32.7188 98.7508 32.7425 98.8147 32.7532 98.8813C32.7638 98.948 32.7613 99.0161 32.7456 99.0817C32.73 99.1474 32.7015 99.2093 32.662 99.264C32.6224 99.3186 32.5724 99.365 32.5149 99.4003C32.4574 99.4357 32.3935 99.4594 32.3269 99.47C31.6786 99.578 31.0379 99.7272 30.4085 99.9166H30.2867ZM34.1336 97.0949C34.0632 97.1089 33.9908 97.1089 33.9204 97.0949C33.7981 97.0395 33.7028 96.9379 33.6552 96.8124C33.6076 96.6868 33.6118 96.5475 33.6667 96.425C33.9588 95.785 34.2981 95.1675 34.6817 94.5777C34.753 94.4633 34.8669 94.3819 34.9982 94.3515C35.1296 94.321 35.2676 94.344 35.382 94.4153C35.4964 94.4867 35.5778 94.6005 35.6083 94.7319C35.6387 94.8632 35.6158 95.0013 35.5444 95.1157C35.1961 95.67 34.8841 96.2464 34.6106 96.8412C34.564 96.9249 34.4942 96.9935 34.4096 97.0385C34.3249 97.0835 34.2291 97.1031 34.1336 97.0949V97.0949ZM36.2752 93.6439C36.1609 93.6425 36.0503 93.6032 35.9606 93.5323C35.9073 93.4907 35.8629 93.4389 35.8299 93.38C35.797 93.3211 35.7761 93.2561 35.7685 93.189C35.7609 93.1219 35.7669 93.0539 35.7859 92.9891C35.8049 92.9243 35.8367 92.864 35.8794 92.8116C36.2955 92.2838 36.7624 91.7966 37.2496 91.2485C37.3439 91.1516 37.4727 91.0961 37.6079 91.0942C37.743 91.0923 37.8734 91.1442 37.9703 91.2384C38.0672 91.3326 38.1227 91.4614 38.1246 91.5966C38.1265 91.7317 38.0747 91.8621 37.9804 91.959C37.5192 92.434 37.0821 92.932 36.6711 93.4511C36.6207 93.5124 36.5571 93.5617 36.4851 93.5951C36.413 93.6285 36.3343 93.6452 36.2549 93.6439H36.2752ZM39.4928 90.5279L39.0969 90.2031L38.762 89.8174C39.3304 89.3302 39.8379 88.914 40.3555 88.508C40.462 88.4262 40.5965 88.3898 40.7297 88.4069C40.8628 88.4241 40.9838 88.4933 41.066 88.5994C41.1079 88.6515 41.1388 88.7116 41.1569 88.776C41.175 88.8403 41.1799 88.9077 41.1714 88.974C41.1629 89.0404 41.1411 89.1043 41.1073 89.162C41.0735 89.2197 41.0284 89.27 40.9747 89.3099C40.457 89.7057 39.9597 90.1016 39.4725 90.5279H39.4928ZM42.3246 88.234C42.241 88.2332 42.1587 88.2126 42.0846 88.1737C42.0104 88.1349 41.9466 88.079 41.8983 88.0107C41.8243 87.8972 41.7978 87.7592 41.8244 87.6264C41.8509 87.4936 41.9285 87.3765 42.0404 87.3002C42.6088 86.9145 43.1874 86.5491 43.7862 86.204C43.9009 86.1365 44.0375 86.1168 44.1666 86.1491C44.2957 86.1813 44.407 86.263 44.4764 86.3765C44.5444 86.4928 44.5644 86.6309 44.5322 86.7617C44.5 86.8925 44.4181 87.0055 44.3039 87.0769C43.7287 87.4152 43.1603 87.7705 42.5987 88.1426C42.5137 88.2055 42.41 88.2377 42.3043 88.234H42.3246ZM45.8264 86.204C45.7326 86.204 45.6405 86.1785 45.5601 86.1302C45.4796 86.0819 45.4138 86.0127 45.3696 85.9299C45.3094 85.8101 45.2991 85.6712 45.341 85.5438C45.3828 85.4164 45.4734 85.3107 45.5929 85.2499C46.2121 84.9352 46.8312 84.6409 47.4605 84.3567C47.5846 84.3051 47.7239 84.3038 47.8489 84.3531C47.9739 84.4023 48.0749 84.4982 48.1304 84.6206C48.1573 84.6819 48.1718 84.7478 48.1731 84.8148C48.1744 84.8817 48.1624 84.9482 48.1378 85.0104C48.1133 85.0727 48.0767 85.1295 48.0302 85.1776C47.9836 85.2256 47.928 85.264 47.8665 85.2905C47.2575 85.5544 46.6485 85.8487 46.0598 86.1532C45.9767 86.1733 45.8905 86.1767 45.8061 86.1634L45.8264 86.204ZM49.5514 84.5597C49.4168 84.5839 49.2781 84.5537 49.1658 84.4756C49.0535 84.3976 48.9768 84.2781 48.9526 84.1435C48.9284 84.0089 48.9586 83.8702 49.0366 83.7579C49.1147 83.6456 49.2341 83.5689 49.3687 83.5447C50.0082 83.3011 50.6578 83.0778 51.3175 82.8646C51.4454 82.823 51.5846 82.8338 51.7045 82.8947C51.8244 82.9556 51.9152 83.0616 51.957 83.1894C51.9954 83.3186 51.9819 83.4577 51.9194 83.5772C51.8568 83.6966 51.7501 83.7869 51.622 83.8289C50.9826 84.0319 50.3533 84.2552 49.724 84.4886C49.6642 84.5177 49.597 84.5283 49.5311 84.5191L49.5514 84.5597ZM53.4186 83.3011C53.3084 83.3028 53.2007 83.2678 53.1125 83.2017C53.0243 83.1355 52.9606 83.0419 52.9314 82.9357C52.8969 82.8052 52.9147 82.6663 52.981 82.5488C53.0474 82.4312 53.1571 82.3442 53.2866 82.3064C53.9464 82.1338 54.6163 81.9613 55.3166 81.8192C55.382 81.8042 55.4496 81.8023 55.5157 81.8136C55.5817 81.825 55.6449 81.8492 55.7015 81.8851C55.7581 81.921 55.8071 81.9677 55.8456 82.0226C55.884 82.0775 55.9112 82.1394 55.9256 82.2049C55.9405 82.2696 55.9423 82.3366 55.9309 82.402C55.9194 82.4674 55.895 82.5298 55.8591 82.5856C55.8231 82.6414 55.7764 82.6895 55.7216 82.727C55.6667 82.7644 55.605 82.7905 55.5399 82.8037C54.8802 82.956 54.2306 83.1082 53.581 83.2909L53.4186 83.3011ZM79.7071 82.5297H79.6259L77.5959 82.2455C77.5304 82.2379 77.467 82.2175 77.4095 82.1852C77.352 82.153 77.3014 82.1096 77.2608 82.0577C77.2202 82.0058 77.1903 81.9462 77.1729 81.8826C77.1555 81.819 77.1509 81.7526 77.1594 81.6872C77.1772 81.5533 77.2466 81.4317 77.3528 81.3483C77.459 81.2648 77.5936 81.2262 77.7278 81.2406L79.7578 81.5248C79.8924 81.5342 80.0178 81.5967 80.1063 81.6986C80.1948 81.8004 80.2392 81.9332 80.2298 82.0678C80.2204 82.2024 80.1579 82.3278 80.056 82.4163C79.9542 82.5048 79.8214 82.5492 79.6868 82.5398L79.7071 82.5297ZM57.3771 82.418C57.3104 82.424 57.2433 82.4168 57.1794 82.3969C57.1155 82.3769 57.0562 82.3446 57.0049 82.3017C56.9011 82.2151 56.836 82.0908 56.8239 81.9562C56.8118 81.8216 56.8536 81.6877 56.9403 81.584C57.0269 81.4802 57.1511 81.4151 57.2857 81.403C57.9556 81.2812 58.6357 81.1797 59.3157 81.0782C59.4501 81.0608 59.586 81.0967 59.6941 81.1783C59.8023 81.2599 59.8742 81.3807 59.8943 81.5147C59.9116 81.6479 59.8753 81.7825 59.7935 81.8891C59.7117 81.9956 59.591 82.0654 59.4578 82.0831L57.4278 82.3977L57.3771 82.418ZM75.6471 82.0019H75.5862L73.5562 81.809C73.4216 81.7982 73.2968 81.7345 73.2092 81.6317C73.1217 81.5289 73.0785 81.3955 73.0893 81.2609C73.1001 81.1263 73.1639 81.0015 73.2666 80.9139C73.3694 80.8264 73.5028 80.7832 73.6374 80.794C74.3174 80.8448 74.9975 80.9057 75.6674 80.9869C75.8004 81.0022 75.922 81.0694 76.0057 81.174C76.0893 81.2786 76.1283 81.412 76.114 81.5451C76.0955 81.6574 76.0391 81.76 75.9541 81.8358C75.8692 81.9115 75.7608 81.9558 75.6471 81.9613V82.0019ZM61.4371 81.8598C61.3025 81.8665 61.1707 81.8195 61.0708 81.7291C60.9709 81.6386 60.9109 81.5122 60.9042 81.3777C60.8975 81.2431 60.9445 81.1113 61.0349 81.0114C61.1253 80.9114 61.2517 80.8515 61.3863 80.8448C62.0664 80.7737 62.7566 80.7128 63.4163 80.6722C63.4836 80.6652 63.5516 80.6722 63.616 80.6929C63.6804 80.7135 63.7398 80.7474 63.7904 80.7922C63.841 80.8371 63.8817 80.892 63.9099 80.9535C63.9381 81.015 63.9533 81.0816 63.9543 81.1493C63.9627 81.2823 63.9184 81.4133 63.8311 81.5139C63.7437 81.6146 63.6203 81.6768 63.4874 81.6872C62.8073 81.6872 62.1374 81.7887 61.4574 81.8496L61.4371 81.8598ZM71.5871 81.6771C70.9172 81.6771 70.2371 81.6162 69.5571 81.5959C69.4904 81.5946 69.4247 81.5801 69.3636 81.5534C69.3026 81.5267 69.2474 81.4882 69.2012 81.4401C69.155 81.392 69.1187 81.3353 69.0945 81.2732C69.0702 81.2111 69.0584 81.1449 69.0597 81.0782C69.0697 80.9461 69.128 80.8223 69.2235 80.7306C69.319 80.6388 69.445 80.5855 69.5774 80.5809C70.2676 80.5809 70.9476 80.5809 71.6074 80.6621C71.7429 80.6699 71.8699 80.7307 71.9611 80.8314C72.0522 80.932 72.1001 81.0644 72.0946 81.2C72.0773 81.322 72.0164 81.4335 71.923 81.5138C71.8296 81.5941 71.7102 81.6377 71.5871 81.6365V81.6771ZM65.4971 81.5959C65.3625 81.5959 65.2334 81.5424 65.1382 81.4472C65.0431 81.352 64.9896 81.223 64.9896 81.0884C64.9896 80.9538 65.0431 80.8247 65.1382 80.7295C65.2334 80.6343 65.3625 80.5809 65.4971 80.5809H67.5271C67.6617 80.5809 67.7908 80.6343 67.8859 80.7295C67.9811 80.8247 68.0346 80.9538 68.0346 81.0884C68.0359 81.1545 68.0241 81.2203 67.9997 81.2818C67.9753 81.3433 67.9389 81.3994 67.8926 81.4466C67.8462 81.4939 67.791 81.5314 67.7299 81.5571C67.6689 81.5827 67.6034 81.5959 67.5372 81.5959C66.8572 81.5959 66.1873 81.5959 65.5072 81.5959H65.4971Z" fill="#D1D3D4"/>
<path d="M12.5853 119.8H12.4229C12.2969 119.757 12.1933 119.665 12.1344 119.545C12.0755 119.426 12.0661 119.288 12.1082 119.161C12.2199 118.836 12.3315 118.511 12.4533 118.146C12.5011 118.021 12.5961 117.921 12.7177 117.865C12.8393 117.81 12.9777 117.805 13.1029 117.852C13.2294 117.897 13.3325 117.992 13.3896 118.113C13.4467 118.235 13.4531 118.375 13.4074 118.501C13.2856 118.819 13.174 119.134 13.0725 119.445C13.0399 119.549 12.975 119.639 12.8873 119.703C12.7997 119.767 12.6938 119.801 12.5853 119.8V119.8Z" fill="#D1D3D4"/>
<path d="M69.8516 67.8324C69.7337 67.8301 69.6201 67.7876 69.5297 67.7119C69.4392 67.6362 69.3773 67.5319 69.3542 67.4163C69.3305 67.2844 69.3599 67.1486 69.4359 67.0383C69.512 66.928 69.6286 66.8523 69.7602 66.8276C70.0728 66.7612 70.3786 66.6661 70.6737 66.5434C70.7357 66.5187 70.8019 66.5064 70.8686 66.5073C70.9354 66.5082 71.0012 66.5223 71.0625 66.5487C71.1238 66.5751 71.1793 66.6133 71.2258 66.6611C71.2723 66.709 71.3089 66.7656 71.3335 66.8276C71.3807 66.953 71.3774 67.0917 71.3244 67.2148C71.2714 67.3378 71.1728 67.4355 71.0493 67.4873C70.7035 67.6195 70.3469 67.7214 69.9835 67.7918L69.8516 67.8324Z" fill="#D1D3D4"/>
<path d="M67.8621 67.9035C67.1756 67.8284 66.4965 67.696 65.8321 67.5076C65.7655 67.4903 65.7029 67.46 65.648 67.4185C65.593 67.377 65.5468 67.3251 65.5119 67.2657C65.477 67.2063 65.4542 67.1407 65.4447 67.0725C65.4352 67.0042 65.4392 66.9348 65.4566 66.8682C65.4739 66.8015 65.5042 66.739 65.5457 66.684C65.5872 66.6291 65.6391 66.5829 65.6985 66.548C65.7579 66.5131 65.8236 66.4903 65.8918 66.4808C65.96 66.4713 66.0294 66.4753 66.096 66.4926C66.7145 66.6628 67.3459 66.7816 67.9839 66.8479C68.0507 66.8542 68.1156 66.8738 68.1747 66.9053C68.2339 66.9369 68.2863 66.9798 68.3287 67.0318C68.3712 67.0837 68.403 67.1435 68.4222 67.2077C68.4414 67.272 68.4477 67.3394 68.4407 67.4061C68.4417 67.4789 68.4267 67.551 68.3968 67.6173C68.3668 67.6836 68.3228 67.7425 68.2676 67.79C68.2124 67.8374 68.1475 67.8721 68.0775 67.8918C68.0074 67.9114 67.9339 67.9154 67.8621 67.9035V67.9035ZM63.9747 66.8885C63.9176 66.8981 63.8592 66.8981 63.8021 66.8885L61.9142 66.2084C61.8498 66.1872 61.7903 66.1532 61.7392 66.1085C61.6881 66.0639 61.6465 66.0094 61.6168 65.9484C61.5872 65.8874 61.57 65.821 61.5665 65.7533C61.5629 65.6855 61.573 65.6177 61.596 65.5539C61.6191 65.4901 61.6547 65.4315 61.7008 65.3818C61.7469 65.332 61.8026 65.2919 61.8644 65.264C61.9262 65.2361 61.9931 65.2208 62.0609 65.2192C62.1287 65.2175 62.1962 65.2295 62.2593 65.2543L64.1472 65.9344C64.2139 65.9457 64.2776 65.9701 64.3349 66.006C64.3921 66.042 64.4417 66.0889 64.4808 66.144C64.5199 66.1992 64.5478 66.2615 64.5628 66.3274C64.5779 66.3933 64.5798 66.4615 64.5684 66.5282C64.5571 66.5948 64.5328 66.6586 64.4968 66.7158C64.4608 66.773 64.4139 66.8226 64.3588 66.8618C64.3037 66.9009 64.2414 66.9287 64.1754 66.9438C64.1095 66.9588 64.0413 66.9607 63.9747 66.9494V66.8885ZM60.1989 65.5284C60.1418 65.538 60.0834 65.538 60.0263 65.5284L58.1384 64.8179C58.0759 64.7954 58.0185 64.7605 57.9696 64.7154C57.9208 64.6703 57.8815 64.6158 57.854 64.5553C57.8266 64.4947 57.8116 64.4293 57.8099 64.3628C57.8081 64.2963 57.8198 64.2302 57.8441 64.1683C57.8677 64.1054 57.9036 64.0478 57.9497 63.9988C57.9957 63.9499 58.051 63.9106 58.1124 63.8832C58.1738 63.8558 58.24 63.8409 58.3072 63.8393C58.3744 63.8377 58.4412 63.8495 58.5038 63.8739L60.3816 64.5743C60.5062 64.6221 60.607 64.7171 60.6621 64.8387C60.7172 64.9603 60.7221 65.0987 60.6759 65.2239C60.638 65.318 60.5717 65.3979 60.4861 65.4525C60.4006 65.5071 60.3002 65.5336 60.1989 65.5284V65.5284ZM56.4637 64.1175C56.4003 64.1326 56.3342 64.1326 56.2708 64.1175C55.6517 63.8739 55.0224 63.6202 54.4032 63.3563C54.2815 63.3026 54.1852 63.2041 54.1341 63.0813C54.0831 62.9584 54.0813 62.8207 54.1292 62.6965C54.1849 62.5741 54.2852 62.4775 54.4097 62.4266C54.5343 62.3757 54.6735 62.3742 54.7991 62.4225C55.4081 62.6864 56.0272 62.93 56.6464 63.1736C56.7084 63.1982 56.765 63.2348 56.8128 63.2813C56.8607 63.3278 56.8989 63.3833 56.9253 63.4445C56.9517 63.5058 56.9657 63.5717 56.9666 63.6384C56.9676 63.7051 56.9553 63.7714 56.9306 63.8333C56.889 63.9211 56.8226 63.9948 56.7397 64.0453C56.6567 64.0958 56.5607 64.1209 56.4637 64.1175ZM52.7589 62.5646C52.6921 62.5798 52.6227 62.5798 52.5559 62.5646L50.7188 61.7221C50.6578 61.6938 50.6031 61.6537 50.5578 61.6041C50.5125 61.5544 50.4775 61.4963 50.4548 61.433C50.4322 61.3698 50.4223 61.3026 50.4258 61.2355C50.4293 61.1684 50.4461 61.1027 50.4752 61.0421C50.5344 60.9209 50.6387 60.8276 50.7657 60.7821C50.8927 60.7366 51.0325 60.7425 51.1552 60.7985C51.7541 61.0928 52.3529 61.3669 52.9619 61.6308C53.0965 61.6577 53.2149 61.737 53.2911 61.8512C53.3672 61.9654 53.3948 62.1052 53.3679 62.2398C53.341 62.3744 53.2617 62.4928 53.1475 62.5689C53.0333 62.6451 52.8935 62.6727 52.7589 62.6458V62.5646ZM49.1354 60.8391C49.0536 60.8396 48.9731 60.8186 48.9019 60.7782C48.3031 60.4737 47.7042 60.159 47.1155 59.8241C47.0566 59.7924 47.0047 59.7491 46.9629 59.6969C46.9211 59.6446 46.8903 59.5845 46.8723 59.52C46.8543 59.4556 46.8495 59.3882 46.8581 59.3218C46.8668 59.2555 46.8887 59.1916 46.9227 59.1339C46.9888 59.0169 47.0985 58.931 47.2279 58.8948C47.3573 58.8587 47.4957 58.8753 47.6129 58.941C48.1914 59.2658 48.7801 59.5805 49.3688 59.885C49.4281 59.915 49.4808 59.9565 49.5237 60.0072C49.5667 60.0579 49.599 60.1166 49.6189 60.18C49.6388 60.2434 49.6457 60.3102 49.6394 60.3763C49.6331 60.4424 49.6135 60.5066 49.582 60.565C49.5387 60.6486 49.4731 60.7184 49.3924 60.7668C49.3118 60.8152 49.2193 60.8402 49.1252 60.8391H49.1354ZM45.6336 58.8801C45.5414 58.8771 45.451 58.8528 45.3697 58.8091C44.7912 58.4538 44.2228 58.0884 43.6544 57.7129C43.5987 57.6752 43.551 57.6268 43.5142 57.5706C43.4774 57.5143 43.4521 57.4513 43.4398 57.3852C43.4275 57.3191 43.4285 57.2512 43.4427 57.1855C43.4569 57.1198 43.484 57.0576 43.5224 57.0024C43.5591 56.947 43.6066 56.8996 43.662 56.8629C43.7173 56.8262 43.7795 56.8009 43.8448 56.7886C43.91 56.7763 43.9771 56.7772 44.042 56.7913C44.107 56.8053 44.1684 56.8323 44.2228 56.8704C44.7709 57.2358 45.3291 57.5742 45.8975 57.8854C45.9935 57.9424 46.0681 58.0294 46.1096 58.133C46.1512 58.2366 46.1574 58.3511 46.1273 58.4586C46.0973 58.5661 46.0326 58.6607 45.9434 58.7277C45.8541 58.7947 45.7452 58.8305 45.6336 58.8294V58.8801ZM42.2537 56.637C42.1435 56.6393 42.0359 56.6035 41.9492 56.5355L41.3402 56.0686C41.0052 55.8148 40.6703 55.5509 40.3252 55.2769C40.2739 55.2342 40.2314 55.1819 40.2004 55.1229C40.1693 55.0638 40.1501 54.9992 40.144 54.9328C40.1379 54.8663 40.1449 54.7993 40.1646 54.7356C40.1844 54.6719 40.2165 54.6126 40.2592 54.5613C40.3019 54.51 40.3542 54.4676 40.4132 54.4365C40.4723 54.4054 40.5369 54.3863 40.6033 54.3801C40.6698 54.374 40.7368 54.381 40.8005 54.4008C40.8642 54.4206 40.9235 54.4527 40.9748 54.4953C41.2996 54.7592 41.6142 55.0231 41.9898 55.2667L42.5886 55.7235C42.6738 55.7874 42.7368 55.8765 42.7685 55.9782C42.8003 56.0798 42.7993 56.1889 42.7656 56.29C42.7319 56.391 42.6673 56.4789 42.5809 56.5412C42.4945 56.6035 42.3906 56.637 42.2841 56.637H42.2537ZM39.2087 54.069C39.08 54.0662 38.9569 54.0156 38.8636 53.9269C38.3662 53.46 37.8486 52.983 37.4223 52.4856C37.375 52.4393 37.3375 52.3841 37.3118 52.3231C37.2862 52.2621 37.273 52.1966 37.273 52.1304C37.273 52.0642 37.2862 51.9987 37.3118 51.9377C37.3375 51.8767 37.375 51.8214 37.4223 51.7751C37.4694 51.7276 37.5256 51.6898 37.5874 51.6641C37.6493 51.6383 37.7156 51.625 37.7826 51.625C37.8496 51.625 37.9159 51.6383 37.9778 51.6641C38.0396 51.6898 38.0957 51.7276 38.1429 51.7751C38.5895 52.2522 39.0564 52.7191 39.5436 53.1657C39.5912 53.2129 39.6289 53.269 39.6547 53.3308C39.6805 53.3927 39.6937 53.459 39.6937 53.526C39.6937 53.593 39.6805 53.6593 39.6547 53.7212C39.6289 53.783 39.5912 53.8392 39.5436 53.8863C39.5026 53.9373 39.4518 53.9797 39.3944 54.0111C39.3369 54.0424 39.2738 54.0621 39.2087 54.069V54.069ZM36.458 51.1458C36.3841 51.1467 36.3109 51.1306 36.2441 51.099C36.1773 51.0673 36.1185 51.0209 36.0723 50.9631C35.6359 50.4455 35.2096 49.9481 34.8137 49.3594C34.7366 49.2496 34.7052 49.1142 34.726 48.9816C34.7468 48.8491 34.8183 48.7298 34.9254 48.6489C34.9793 48.6095 35.0405 48.5811 35.1054 48.5653C35.1704 48.5496 35.2378 48.5468 35.3038 48.5572C35.3698 48.5676 35.4331 48.5909 35.4901 48.6258C35.5471 48.6607 35.5966 48.7065 35.6359 48.7606C36.0216 49.2884 36.4276 49.7756 36.8437 50.3135C36.9296 50.4178 36.9714 50.5516 36.96 50.6863C36.9486 50.8209 36.885 50.9458 36.7828 51.0342C36.6893 51.1052 36.5755 51.1444 36.458 51.1458V51.1458ZM34.1032 47.8978C34.0168 47.8985 33.9315 47.8774 33.8553 47.8367C33.779 47.7959 33.7142 47.7367 33.6668 47.6644C33.3014 47.0858 32.9563 46.487 32.6518 45.8881C32.5899 45.7684 32.5781 45.6289 32.619 45.5004C32.6599 45.3719 32.7502 45.2649 32.87 45.203C32.9898 45.1411 33.1293 45.1293 33.2578 45.1702C33.3862 45.2112 33.4932 45.3015 33.5551 45.4212C33.8596 45.9896 34.1844 46.558 34.5701 47.1264C34.6056 47.1831 34.6295 47.2461 34.6405 47.312C34.6515 47.3779 34.6494 47.4453 34.6343 47.5103C34.6192 47.5754 34.5915 47.6368 34.5526 47.6911C34.5137 47.7455 34.4645 47.7915 34.4077 47.8268C34.3254 47.8771 34.23 47.9018 34.1337 47.8978H34.1032ZM32.2255 44.3555C32.1264 44.3558 32.0294 44.3272 31.9465 44.2731C31.8635 44.219 31.7982 44.1418 31.7586 44.051C31.4811 43.4082 31.2375 42.7687 31.0278 42.1326C30.9968 42.068 30.9799 41.9975 30.9781 41.9258C30.9764 41.8541 30.9898 41.7828 31.0176 41.7167C31.0454 41.6506 31.0869 41.5911 31.1394 41.5422C31.1918 41.4933 31.254 41.4561 31.3219 41.433C31.3898 41.4099 31.4618 41.4014 31.5332 41.4081C31.6046 41.4149 31.6738 41.4367 31.7361 41.4721C31.7985 41.5075 31.8526 41.5558 31.895 41.6136C31.9373 41.6715 31.967 41.7377 31.9819 41.8078C32.1849 42.4168 32.4285 43.036 32.6924 43.645C32.7439 43.7691 32.7452 43.9083 32.696 44.0333C32.6467 44.1584 32.5508 44.2593 32.4285 44.3149C32.3631 44.3381 32.2947 44.3518 32.2255 44.3555V44.3555ZM30.9466 40.5492C30.8336 40.5498 30.7239 40.5119 30.6353 40.4418C30.5468 40.3717 30.4847 40.2736 30.4594 40.1635C30.2963 39.4939 30.1675 38.8163 30.0737 38.1335C30.0637 38.0674 30.0672 37.9999 30.0839 37.9351C30.1006 37.8703 30.1302 37.8096 30.171 37.7565C30.2117 37.7034 30.2628 37.6591 30.321 37.6263C30.3793 37.5934 30.4436 37.5726 30.5101 37.5651C30.6418 37.5477 30.7751 37.5825 30.8814 37.6622C30.9876 37.7419 31.0584 37.8601 31.0785 37.9914C31.1699 38.6309 31.2917 39.2805 31.4439 39.9199C31.4718 40.0503 31.4483 40.1863 31.3783 40.2998C31.3083 40.4132 31.1973 40.4953 31.0684 40.5289L30.9466 40.5492Z" fill="#D1D3D4"/>
<path d="M30.3986 36.5603C30.2674 36.5604 30.1413 36.5097 30.0467 36.4189C29.9521 36.3281 29.8963 36.2042 29.8911 36.0731C29.8911 35.728 29.8911 35.3829 29.8911 35.0581C29.8881 34.9911 29.8993 34.9243 29.9238 34.8619C29.9484 34.7995 29.9859 34.743 30.0338 34.6961C30.0817 34.6492 30.1389 34.6129 30.2018 34.5895C30.2646 34.5662 30.3317 34.5564 30.3986 34.5608C30.5332 34.5608 30.6623 34.6142 30.7575 34.7094C30.8526 34.8046 30.9061 34.9337 30.9061 35.0683C30.9061 35.4032 30.9061 35.728 30.9061 36.0833C30.9088 36.1499 30.8984 36.2165 30.8754 36.2791C30.8523 36.3417 30.8172 36.3992 30.7719 36.4482C30.7267 36.4972 30.6722 36.5368 30.6116 36.5648C30.5511 36.5927 30.4856 36.6084 30.4189 36.6111L30.3986 36.5603Z" fill="#D1D3D4"/>
<path d="M31.5557 22.6345C34.5837 19.949 36.7045 16.3907 37.6262 12.4498C38.5478 8.50881 38.2248 4.37904 36.7017 0.629272C36.7017 0.629272 29.5967 0.811971 27.2724 9.10452C24.948 17.3971 31.5557 22.6345 31.5557 22.6345Z" fill="white"/>
<path d="M31.5556 23.142C31.4404 23.1458 31.328 23.106 31.2409 23.0304C31.1699 23.0304 24.4303 17.4986 26.7749 8.97262C29.1196 0.446624 36.6103 0.121826 36.6915 0.121826C36.7968 0.122647 36.8996 0.154984 36.9864 0.214679C37.0732 0.274373 37.1402 0.35869 37.1787 0.456774C38.7164 4.30954 39.0319 8.54208 38.0823 12.5802C37.1327 16.6184 34.9639 20.2667 31.8702 23.0304C31.7832 23.106 31.6708 23.1458 31.5556 23.142V23.142ZM36.3565 1.16727C34.9152 1.32967 29.6474 2.37512 27.7595 9.28727C25.8716 16.1994 30.3173 20.8481 31.5556 22.0052C34.3713 19.4262 36.3377 16.0533 37.195 12.3325C38.0523 8.61169 37.7599 4.71831 36.3565 1.16727V1.16727Z" fill="#D1D3D4"/>
<path d="M32.459 27.9023C32.3562 27.9017 32.2559 27.8704 32.171 27.8126C32.086 27.7547 32.0202 27.6729 31.9819 27.5775C27.9219 16.6358 35.91 1.05558 36.2449 0.395831C36.3095 0.277358 36.4178 0.188779 36.5467 0.148965C36.6756 0.109152 36.815 0.121247 36.9351 0.182678C37.0529 0.245287 37.1412 0.351734 37.1811 0.478996C37.221 0.606258 37.2092 0.744108 37.1483 0.86273C37.0671 1.02513 29.0283 16.7069 32.936 27.2527C32.9603 27.3146 32.9719 27.3808 32.9702 27.4472C32.9685 27.5137 32.9535 27.5791 32.926 27.6397C32.8986 27.7003 32.8593 27.7547 32.8105 27.7998C32.7616 27.8449 32.7042 27.8798 32.6417 27.9023C32.5811 27.912 32.5195 27.912 32.459 27.9023V27.9023Z" fill="#D1D3D4"/>
<path d="M19.1016 125.85C22.1283 128.536 24.2483 132.094 25.1698 136.035C26.0914 139.976 25.7692 144.105 24.2476 147.855C24.2476 147.855 17.1426 147.683 14.8183 139.38C12.4939 131.077 19.1016 125.85 19.1016 125.85Z" fill="white"/>
<path d="M24.2475 148.363C24.1764 148.363 16.6959 148.078 14.3411 139.512C11.9863 130.945 18.7259 125.505 18.7969 125.454C18.8873 125.381 19.0002 125.341 19.1166 125.341C19.2331 125.341 19.346 125.381 19.4364 125.454C22.528 128.221 24.6943 131.872 25.642 135.912C26.5897 139.951 26.273 144.184 24.7347 148.038C24.697 148.136 24.6299 148.219 24.5426 148.278C24.4554 148.336 24.3523 148.365 24.2475 148.363ZM19.1014 126.52C17.3534 128.08 16.0729 130.096 15.4027 132.341C14.7324 134.587 14.6987 136.974 15.3053 139.238C17.2034 146.109 22.4712 147.165 23.9024 147.358C25.2663 143.801 25.538 139.918 24.6828 136.206C23.8275 132.494 21.8842 129.121 19.1014 126.52V126.52Z" fill="#D1D3D4"/>
<path d="M24.2476 148.363C24.1553 148.362 24.0649 148.336 23.9862 148.288C23.9075 148.239 23.8435 148.17 23.801 148.089C23.4559 147.429 15.5085 131.849 19.538 120.907C19.5859 120.782 19.6808 120.681 19.8024 120.626C19.924 120.571 20.0624 120.566 20.1876 120.612C20.3141 120.658 20.4173 120.752 20.4744 120.874C20.5315 120.996 20.5379 121.136 20.4921 121.262C16.6148 131.788 24.6232 147.469 24.7044 147.652C24.7646 147.772 24.7749 147.911 24.7331 148.038C24.6912 148.166 24.6006 148.271 24.4811 148.332C24.4072 148.362 24.3268 148.373 24.2476 148.363Z" fill="#D1D3D4"/>
<path d="M23.1108 64.686C19.8952 67.1432 15.997 68.5436 11.9528 68.6944C7.90855 68.8453 3.91692 67.7392 0.5271 65.5284C0.5271 65.5284 2.05975 58.5554 10.6771 57.8956C19.2944 57.2359 23.1108 64.686 23.1108 64.686Z" fill="white"/>
<path d="M11.1845 69.223C7.30743 69.1824 3.5197 68.0535 0.252997 65.9649C0.163952 65.91 0.0944467 65.8286 0.0543597 65.732C0.0142728 65.6354 0.00564218 65.5287 0.0296956 65.4269C0.0296956 65.3457 1.74504 58.0682 10.606 57.3881C19.4669 56.7081 23.5168 64.3713 23.5574 64.4931C23.6118 64.5945 23.6295 64.7116 23.6073 64.8245C23.585 64.9374 23.5244 65.0391 23.4356 65.1123C19.8943 67.7531 15.602 69.1933 11.1845 69.223V69.223ZM1.11575 65.295C4.32781 67.3385 8.0834 68.3615 11.8881 68.2292C15.6928 68.097 19.3683 66.8157 22.4307 64.554C21.2306 62.5471 19.498 60.9118 17.4251 59.8296C15.3521 58.7475 13.0199 58.2607 10.6872 58.4234C3.5822 58.9411 1.54205 63.9146 1.11575 65.295Z" fill="#D1D3D4"/>
<path d="M27.6072 66.99C27.5143 66.992 27.4227 66.9673 27.3433 66.9189C17.7617 61.103 0.841668 65.9648 0.669118 66.0156C0.534521 66.0533 0.390469 66.036 0.268646 65.9674C0.146822 65.8989 0.0572062 65.7848 0.0195189 65.6502C-0.0181683 65.5156 -0.000840214 65.3715 0.0676856 65.2497C0.136211 65.1279 0.250322 65.0383 0.38492 65.0006C1.09542 64.7976 17.8937 59.9256 27.8711 66.0156C27.9624 66.0745 28.0323 66.1611 28.0707 66.2627C28.1091 66.3643 28.1139 66.4755 28.0843 66.58C28.0548 66.6845 27.9925 66.7768 27.9066 66.8433C27.8207 66.9098 27.7158 66.947 27.6072 66.9494V66.99Z" fill="#D1D3D4"/>
</svg>
