<svg width="305" height="231" viewBox="0 0 305 231" fill="none" xmlns="http://www.w3.org/2000/svg">
<g clip-path="url(#clip0)">
<path d="M164.084 231C225.483 231 275.257 216.791 275.257 199.263C275.257 181.735 225.483 167.525 164.084 167.525C102.685 167.525 52.9117 181.735 52.9117 199.263C52.9117 216.791 102.685 231 164.084 231Z" fill="#F5F5F5"/>
<path d="M269.857 75.8014C269.857 75.8014 250.163 95.4785 261.281 124.677C272.398 153.875 242.223 202.433 242.223 202.433C242.223 202.433 242.54 202.386 243.147 202.281C283.595 195.146 303.691 148.924 281.2 114.588C272.849 101.823 265.972 86.846 269.857 75.8014Z" fill="#FFF363"/>
<path d="M269.857 75.8014C269.857 75.8014 258.74 99.9218 269.857 119.599C280.974 139.276 271.763 194.499 242.223 202.433" stroke="#535461" stroke-width="2" stroke-miterlimit="10"/>
<path d="M304.93 155.389C304.93 155.389 282.457 151.812 280.409 171.937C278.36 192.062 237.21 194.848 237.21 194.848C237.21 194.848 237.477 195.032 237.982 195.362C271.969 217.655 304.46 209.561 299.565 179.96C297.733 168.957 297.879 157.903 304.93 155.389Z" fill="#FFF363"/>
<path opacity="0.2" d="M304.93 155.389C304.93 155.389 282.457 151.812 280.409 171.937C278.36 192.062 237.21 194.848 237.21 194.848C237.21 194.848 237.477 195.032 237.982 195.362C271.969 217.655 304.46 209.561 299.565 179.96C297.733 168.957 297.879 157.903 304.93 155.389Z" fill="#F5F5F5"/>
<path d="M304.93 155.389C304.93 155.389 287.486 159.217 288.918 175.066C290.351 190.916 263.002 209.907 237.198 194.842" stroke="#535461" stroke-width="2" stroke-miterlimit="10"/>
<path opacity="0.2" d="M48.09 0.0250392C45.5298 -0.0638252 42.9061 0.0250391 40.5048 0.920031C33.9711 3.35428 30.8741 11.3172 31.881 18.2137C32.8879 25.1102 37.0299 31.099 41.3275 36.5864C45.6251 42.0738 50.2816 47.4914 52.6385 54.0419C53.8137 57.3141 54.3633 60.9797 53.169 64.2455C51.3267 69.2822 45.7712 72.0973 40.4381 72.6813C35.105 73.2652 29.7497 72.1259 24.3975 71.7291C22.1518 71.5705 19.8426 71.5514 17.7272 72.2877C15.4053 73.0907 13.4709 74.7283 11.6921 76.4358C4.75176 83.1324 -0.803686 92.2727 0.0952228 101.87C1.11166 112.75 10.177 121.35 20.1063 125.962C23.3938 127.492 26.8719 128.729 29.7656 130.913C37.3888 136.67 39.1009 147.458 38.3417 156.982C37.5826 166.506 34.997 176.04 36.4359 185.482C38.1289 196.463 45.6219 206.381 55.7291 211.015C64.7341 215.141 76.0038 214.883 83.9987 209.047C87.896 206.191 90.8437 202.252 93.407 198.167C97.276 192.005 100.415 185.415 102.761 178.528C103.876 175.256 104.924 171.737 107.526 169.461C109.114 168.061 111.172 167.277 113.208 166.668C119.345 164.834 125.809 164.329 132.003 162.698C138.197 161.066 144.429 158.026 147.796 152.589C152.56 144.874 150.337 135.007 150.359 125.93C150.397 105.25 162.782 86.7345 167.353 66.5813C168.845 59.9927 169.401 52.7026 166.066 46.8281C163.798 42.8196 159.977 39.9633 155.959 37.7417C147.129 32.8414 137.091 30.6611 127.216 28.5378C113.491 25.5926 96.8248 25.2118 86.1872 15.6842C75.9784 6.54388 62.0119 0.0250392 48.09 0.0250392Z" fill="#FFF363"/>
<g opacity="0.5">
<path opacity="0.5" d="M97.8762 80.0701C97.8755 75.0854 97.0942 70.1316 95.5607 65.3884L91.749 53.5789C91.749 53.3821 91.749 53.1886 91.749 52.995C91.8666 45.4256 85.9617 41.6489 83.6874 42.0583C81.3592 42.4772 74.8985 39.24 74.8985 39.24V39.3289C74.4555 38.8194 74.056 38.2737 73.7042 37.6976C74.8204 36.8853 75.7629 35.8582 76.4762 34.6767C77.1895 33.4952 77.6593 32.1832 77.8578 30.8177C78.0564 29.4523 77.9798 28.0609 77.6325 26.7255C77.2852 25.39 76.6742 24.1374 75.8355 23.0413C76.5338 22.517 77.0664 21.8031 77.3697 20.9847C77.8969 19.5026 77.4936 17.811 76.6359 16.4907C76.2713 15.9396 75.845 15.4317 75.3654 14.9768C74.6389 14.2577 73.8455 13.6095 72.9958 13.0409C70.8772 11.5746 68.5489 10.3146 66.0078 9.86713C65.5681 9.76339 65.1103 9.76339 64.6706 9.86713C64.289 10.021 63.9257 10.2169 63.5875 10.4511C61.8468 11.4413 59.6806 11.0128 57.6731 10.9081C55.6656 10.8034 53.2262 11.3651 52.5909 13.2471C52.394 13.8279 52.4067 14.4563 52.2733 15.053C51.9557 16.5129 50.828 17.6459 49.9577 18.8615C49.0874 20.077 48.4362 21.7178 49.1605 23.0381C49.4082 23.4824 49.7957 23.8918 49.7957 24.3996C49.7957 24.7646 49.5797 25.0915 49.4781 25.4406C49.2589 26.2341 49.6719 27.0275 50.3071 27.6019C50.5809 27.8968 50.9032 28.1426 51.26 28.3287C52.2669 28.8429 53.4263 29.0016 54.4523 29.4776C54.9644 29.7179 55.4342 30.0394 55.8435 30.4297C56.3449 30.9542 56.7368 31.573 56.9964 32.2503C57.256 32.9276 57.378 33.6498 57.3555 34.3747L57.5683 34.3969C57.5683 34.4604 57.5683 34.5207 57.5683 34.5841C57.7906 34.6095 58.0257 34.6317 58.2575 34.6413C58.5911 35.1793 58.9728 35.686 59.3979 36.1551C59.3259 36.426 59.2443 36.701 59.1533 36.9803C58.4068 37.4976 52.3019 41.56 45.3584 40.5825C37.9479 39.5383 33.7107 71.9104 33.7107 71.9104C33.436 73.7616 33.3022 75.631 33.3104 77.5025C33.2787 82.2631 34.2792 88.4931 39.8537 87.5759L42.8173 86.6016V102.613C42.8173 102.613 43.2397 106.999 41.7596 109.913C40.2794 112.826 46.4193 111.792 46.4193 111.792C46.4193 111.792 46.6543 112.036 47.0863 112.452L46.9497 112.836L47.1308 113.02C46.3233 115.778 45.2344 118.446 43.8814 120.983L44.0561 121.071C43.9449 121.284 43.8814 121.389 43.8814 121.389C43.8814 121.389 46.162 122.554 49.3002 124.055C51.8222 132.573 57.3428 152.301 55.5259 156.059L55.5767 156.167C55.9166 156.871 57.816 161.026 57.4317 164.831C57.0855 168.233 61.7992 183.692 63.5589 189.307L62.7267 189.475L65.6902 200.126L65.0549 207.019C65.0549 207.019 61.4561 216.626 69.9243 214.747C78.3925 212.868 76.0642 205.14 76.0642 205.14L76.277 189.475C76.277 189.475 75.4607 189.021 74.4538 188.586C73.7613 186.717 72.2526 182.299 72.2526 179.243C72.2526 175.276 69.4987 158.147 69.4987 158.147V158.112V158.045V158.026L69.4828 157.798V157.76C69.4828 157.547 69.4478 157.255 69.4224 156.9V156.881C69.1048 152.25 68.1519 136.518 68.8475 128.317C69.4592 127.9 70.0957 127.521 70.7533 127.181C72.8148 132.386 78.1288 146.449 77.789 152.349C77.3665 159.648 77.6841 153.916 77.789 152.983C77.8207 152.695 77.843 153.044 77.8525 153.828C77.8525 153.97 77.8525 154.129 77.8525 154.297C77.8525 154.465 77.8525 154.653 77.8525 154.846C77.8525 155.04 77.8525 155.249 77.8525 155.481C77.8525 155.591 77.8525 155.703 77.8525 155.817C77.8525 156.046 77.8525 156.285 77.8525 156.535C77.8525 156.66 77.8525 156.787 77.8525 156.916C77.8525 157.55 77.8525 158.255 77.8302 158.988C77.8302 159.134 77.8302 159.282 77.8302 159.432C77.8302 159.88 77.8302 160.337 77.808 160.8C77.808 161.435 77.7826 162.051 77.7699 162.689C77.7381 164.117 77.6968 165.561 77.646 166.913C77.646 167.063 77.6407 167.212 77.6301 167.36C77.6195 167.657 77.6079 167.946 77.5952 168.23C77.5825 168.513 77.5698 168.791 77.5571 169.061C77.5444 169.33 77.5306 169.591 77.5158 169.845C77.4999 170.144 77.4808 170.429 77.465 170.702L76.3151 170.537L76.0705 173.178C75.6853 177.37 76.2275 181.596 77.6587 185.555C78.0526 186.641 78.3575 187.539 78.4242 187.859C78.637 188.904 78.4242 196.429 78.4242 196.429C78.4242 196.429 79.6948 206.245 85.625 204.363C88.2932 203.515 89.5891 200.938 90.2085 198.355C90.8958 195.36 90.6395 192.226 89.4748 189.383C88.633 187.269 87.7722 184.305 88.3789 182.013C89.4366 178.046 89.4367 172.407 89.4367 172.407L88.7823 172.315C88.9454 172.005 89.0928 171.687 89.2238 171.362C89.2238 171.362 89.011 156.951 90.9168 155.072C91.965 154.037 91.8697 151.552 91.5521 149.521C91.0984 146.581 90.9917 143.599 91.2345 140.634C91.3647 139.108 91.5521 137.778 91.7713 137.305C92.3303 136.201 92.8893 125.067 90.415 119.71L90.9232 119.551L90.8438 119.158L90.9232 119.132C91.2964 120.128 91.7205 121.103 92.1937 122.055C92.3187 122.153 92.4625 122.225 92.6162 122.265C99.4739 121.062 99.7503 114.667 99.3691 111.176C99.6582 111.315 99.817 111.404 99.817 111.404L100.452 102.2C101.103 100.731 101.345 98.8554 101.329 96.8274C101.358 89.5786 97.8762 80.0701 97.8762 80.0701ZM90.3165 106.231C89.8464 102.223 89.1952 98.4491 89.1952 98.4491L86.0189 87.1697V83.0629L91.0566 101.851L90.3165 106.231Z" fill="url(#paint0_linear)"/>
</g>
<path d="M76.0356 167.843L75.8006 170.423C75.4296 174.523 75.9553 178.654 77.3411 182.531C77.7191 183.594 78.0145 184.47 78.078 184.784C78.2813 185.806 78.078 193.153 78.078 193.153C78.078 193.153 79.3041 202.747 85.0247 200.91C87.5975 200.085 88.8363 197.562 89.4462 195.038C90.1073 192.112 89.8591 189.054 88.7346 186.273C87.9215 184.207 87.0893 181.303 87.6769 179.071C88.6997 175.193 88.6997 169.684 88.6997 169.684L76.0356 167.843Z" fill="#5A5773"/>
<path d="M69.9084 123.55C69.9084 123.55 77.8747 142.942 77.465 150.083C77.0552 157.223 77.3633 151.612 77.465 150.695C77.646 149.061 77.465 168.468 76.8519 170.69C76.8519 170.69 85.228 176.812 88.4965 168.649C88.4965 168.649 88.2932 154.567 90.1291 152.729C91.1392 151.72 91.0407 149.289 90.7421 147.306C90.3014 144.436 90.1949 141.526 90.4245 138.632C90.5484 137.14 90.7199 135.826 90.9423 135.379C91.5553 134.154 92.1683 120.275 88.4901 116.397L69.9084 123.55Z" fill="#605D82"/>
<path opacity="0.1" d="M77.8747 170.699C78.4878 168.455 78.6688 149.061 78.4877 150.705C78.3861 151.622 78.078 157.236 78.4877 150.092C78.8975 142.948 70.9312 123.56 70.9312 123.56L88.7537 116.711C88.6711 116.606 88.5854 116.508 88.4996 116.416L69.9116 123.56C69.9116 123.56 77.8779 142.951 77.4681 150.092C77.0584 157.233 77.3665 151.622 77.4681 150.705C77.6492 149.07 77.4681 168.478 76.8551 170.699C76.8551 170.699 80.1998 173.143 83.4873 172.883C80.5619 172.664 77.8747 170.699 77.8747 170.699Z" fill="black"/>
<path d="M62.9617 186.415L65.8204 196.825L65.2074 203.56C65.2074 203.56 61.7356 212.948 69.9052 211.11C78.0748 209.273 75.8291 201.722 75.8291 201.722L76.0324 186.415C76.0324 186.415 72.7639 184.578 71.3346 184.784C69.9052 184.99 62.9617 186.415 62.9617 186.415Z" fill="#5A5773"/>
<path d="M48.8682 118.653C48.8682 118.653 58.2639 149.064 56.0182 153.758C56.0182 153.758 58.2639 158.249 57.8573 162.327C57.4507 166.405 64.3943 188.247 64.3943 188.247L74.6094 186.409C74.6094 186.409 72.1573 180.287 72.1573 176.409C72.1573 172.53 69.5018 155.779 69.5018 155.779C69.5018 155.779 67.2561 125.162 69.9116 121.897L48.8682 118.653Z" fill="#605D82"/>
<g opacity="0.1">
<path opacity="0.1" d="M69.1175 124.385C67.4245 131.316 69.2954 156.824 69.2954 156.824C69.2954 156.824 71.9508 173.559 71.9508 177.453C71.9508 180.414 73.377 184.679 74.0536 186.533L74.6062 186.434C74.6062 186.434 72.1541 180.312 72.1541 176.434C72.1541 172.556 69.4987 155.805 69.4987 155.805C69.4987 155.805 67.7898 132.494 69.1175 124.385Z" fill="black"/>
<path opacity="0.1" d="M56.0182 153.758L56.069 153.862C56.0849 153.758 56.1008 153.647 56.1103 153.545C56.0833 153.618 56.0525 153.688 56.0182 153.758V153.758Z" fill="black"/>
<path opacity="0.1" d="M69.4478 122.9C69.5406 122.547 69.6967 122.215 69.9084 121.919L48.8682 118.653C48.8682 118.653 48.9921 119.05 49.2049 119.758L69.4478 122.9Z" fill="black"/>
</g>
<path d="M97.8921 107.631C97.8921 107.631 100.957 119.056 91.7649 120.694C91.6158 120.655 91.4763 120.586 91.3552 120.491C91.3552 120.491 86.0443 110.081 90.1291 105.999L97.8921 107.631Z" fill="#A1616A"/>
<path d="M60.3063 31.7119C60.3063 31.7119 60.9193 40.281 54.1791 44.3656C47.4389 48.4502 68.4727 59.6725 68.4727 59.6725L79.5042 42.1186C79.5042 42.1186 74.8095 42.7248 71.9508 34.5683L60.3063 31.7119Z" fill="#A1616A"/>
<path opacity="0.1" d="M55.8117 44.9718C55.8117 44.9718 66.2302 66.6071 75.6258 46.1968L90.1291 118.037C90.1291 118.037 67.6564 124.978 67.4563 128.244C67.2561 131.51 44.7866 119.878 44.7866 119.878C44.7866 119.878 49.6877 110.897 48.4648 105.387C47.2419 99.8773 55.8117 44.9718 55.8117 44.9718Z" fill="black"/>
<path d="M55.8117 44.5624C55.8117 44.5624 66.2302 66.1977 75.6258 45.7874L90.1291 117.631C90.1291 117.631 67.6564 124.572 67.4563 127.838C67.2561 131.104 44.7866 119.469 44.7866 119.469C44.7866 119.469 49.6877 110.487 48.4648 104.977C47.2419 99.4679 55.8117 44.5624 55.8117 44.5624Z" fill="#E1E7EF"/>
<path d="M66.0269 192.131C66.0269 192.131 63.3715 186.212 69.4986 186.212C75.6258 186.212 74.6062 191.519 74.6062 191.519L66.0269 192.131Z" fill="#5A5773"/>
<path d="M79.9171 176.821C79.9171 176.821 77.465 170.493 83.5953 170.29C89.7257 170.087 86.6605 176.002 86.6605 176.002L79.9171 176.821Z" fill="#5A5773"/>
<path opacity="0.1" d="M74.7079 39.9636C74.7079 39.9636 80.9367 43.1374 83.1856 42.7184C85.4344 42.2995 91.3552 46.1873 90.9486 53.9439L94.6395 65.5153C96.116 70.1551 96.866 74.9951 96.863 79.8638V79.8638C96.863 79.8638 102.174 94.5581 99.3151 101.09L98.7021 110.071C98.7021 110.071 94.0042 107.418 89.1 108.234L90.3355 100.899L84.8087 80.0764L75.6163 57.8286L74.7079 39.9636Z" fill="black"/>
<path d="M74.7079 39.5605C74.7079 39.5605 80.9367 42.7343 83.1856 42.3153C85.4344 41.8964 91.3552 45.7842 90.9486 53.5408L94.6395 65.1123C96.116 69.7521 96.866 74.592 96.863 79.4607V79.4607C96.863 79.4607 102.174 94.1551 99.3151 100.687L98.7021 109.668C98.7021 109.668 94.0042 107.015 89.1 107.831L90.326 100.484L84.8087 79.667L75.6258 57.4191L74.7079 39.5605Z" fill="#67647E"/>
<path opacity="0.1" d="M85.0247 64.3601V87.4236L88.0899 98.446C88.0899 98.446 90.1323 110.487 89.5192 114.162C88.9062 117.837 79.1008 118.653 76.4454 115.59C73.7899 112.528 75.2193 86.3921 75.2193 86.3921L74.7079 48.1328L75.1176 46.9077L85.0247 64.3601Z" fill="black"/>
<path d="M85.444 63.3413V86.4048L88.5091 97.4272C88.5091 97.4272 90.5515 109.468 89.9385 113.143C89.3255 116.819 79.5201 117.634 76.8646 114.572C74.2092 111.509 75.6386 85.3734 75.6386 85.3734L75.1272 47.1045L85.444 63.3413Z" fill="#67647E"/>
<path opacity="0.1" d="M44.272 82.5265L50.809 102.838L47.7438 111.512C47.7438 111.512 62.247 126.819 71.4394 119.472C71.4394 119.472 72.4622 88.2424 70.4166 80.8952C68.371 73.548 58.5688 48.8405 58.5688 48.8405L56.5391 42.3185L45.7141 48.4407L44.272 82.5265Z" fill="black"/>
<path d="M43.7606 81.5046V101.499C43.7606 101.499 44.1704 105.787 42.7379 108.643C41.3053 111.5 47.2324 110.481 47.2324 110.481C47.2324 110.481 61.7356 125.788 70.928 118.44C70.928 118.44 71.9508 87.2109 69.9052 79.8638C67.8597 72.5166 58.0574 47.8091 58.0574 47.8091L56.015 41.2775L45.19 47.3997L43.7606 81.5046Z" fill="#67647E"/>
<path opacity="0.1" d="M59.5916 37.7261C59.5916 37.7261 53.3628 42.3185 46.2128 41.2966C39.0628 40.2746 34.978 71.9136 34.978 71.9136C34.978 71.9136 32.3226 88.2424 40.9019 86.8142L59.8997 80.4858C59.8997 80.4858 55.8149 76.1981 56.428 70.6885L47.2324 74.3605L47.6453 56.8098L59.5916 37.7261Z" fill="black"/>
<path opacity="0.1" d="M35.3846 71.5041C35.3846 71.5041 32.7292 87.833 41.3085 86.4048L60.3063 80.0764C60.3063 80.0764 56.2215 75.7919 56.8345 70.2791L47.6453 73.9543L35.3846 71.5041Z" fill="black"/>
<path d="M56.3835 72.4309C56.3835 72.4309 62.7584 64.0554 67.4531 68.0765C72.1477 72.0976 58.0669 79.4671 58.0669 79.4671L56.3835 72.4309Z" fill="#A1616A"/>
<path d="M59.5916 37.3167C59.5916 37.3167 53.3628 41.9091 46.2128 40.8872C39.0628 39.8652 34.978 71.5042 34.978 71.5042C34.978 71.5042 32.3226 87.833 40.9019 86.4048L59.8997 80.0764C59.8997 80.0764 55.8149 75.7887 56.428 70.2791L47.2324 73.9543L47.6453 56.4004L58.0638 47.8313L59.5916 37.3167Z" fill="#67647E"/>
<path opacity="0.1" d="M72.1541 34.9682L60.5096 32.1118C60.5096 32.1118 61.1163 32.7973 60.4079 35.4791C62.282 37.6278 64.5848 40.4809 67.6596 40.4809C69.8599 40.4851 72.0022 39.7756 73.7645 38.4593C73.1069 37.3551 72.5671 36.185 72.1541 34.9682Z" fill="black"/>
<path d="M67.4563 40.0747C73.0979 40.0747 77.6714 35.505 77.6714 29.868C77.6714 24.231 73.0979 19.6613 67.4563 19.6613C61.8146 19.6613 57.2411 24.231 57.2411 29.868C57.2411 35.505 61.8146 40.0747 67.4563 40.0747Z" fill="#A1616A"/>
<path opacity="0.1" d="M71.3282 25.4375C73.6978 25.0344 76.3024 23.9839 77.0965 21.7178C77.6047 20.2675 77.2172 18.6171 76.3882 17.3254C75.5591 16.0337 74.3394 15.0403 73.0816 14.1517C71.0392 12.7171 68.7872 11.4857 66.3287 11.0541C65.9048 10.9528 65.463 10.9528 65.0391 11.0541C64.6704 11.2049 64.3199 11.3965 63.994 11.6254C62.3137 12.5934 60.2237 12.1744 58.2766 12.0729C56.3295 11.9713 53.9949 12.5204 53.3818 14.358C53.1913 14.9261 53.204 15.5386 53.0642 16.1226C52.7466 17.5507 51.6698 18.6615 50.8408 19.8517C50.0117 21.0418 49.3733 22.6509 50.0721 23.9331C50.3103 24.3679 50.7073 24.7678 50.7073 25.2629C50.6461 25.6148 50.5393 25.9573 50.3897 26.2817C50.1007 27.3354 50.9424 28.3986 51.9144 28.9C52.8863 29.4014 54.0044 29.557 54.9954 30.0235C55.923 30.4808 56.6996 31.1948 57.2328 32.0803C57.7661 32.9659 58.0336 33.9859 58.0034 35.019C58.9055 35.1237 59.9569 35.1776 60.5667 34.5048C60.8399 34.2033 60.9733 33.8002 61.2211 33.4797C61.5387 33.0608 62.0342 32.8132 62.4408 32.4768C64.5785 30.7217 63.0602 28.297 64.2704 26.4054C64.9057 25.4311 65.9157 25.7294 66.9385 25.7453C68.4082 25.7797 69.8778 25.6766 71.3282 25.4375V25.4375Z" fill="black"/>
<path d="M71.125 25.2344C73.4945 24.8313 76.0991 23.7808 76.8932 21.5147C77.4014 20.0643 77.0139 18.414 76.1849 17.1223C75.3559 15.8306 74.1361 14.8372 72.8783 13.9486C70.8359 12.514 68.5839 11.2826 66.1254 10.851C65.7015 10.7497 65.2597 10.7497 64.8358 10.851C64.4671 11.0018 64.1166 11.1934 63.7907 11.4223C62.1105 12.3903 60.0204 11.9713 58.0733 11.8698C56.1262 11.7682 53.7916 12.3173 53.1785 14.1549C52.988 14.723 53.0007 15.3355 52.8609 15.9195C52.5433 17.3476 51.4665 18.4584 50.6375 19.6486C49.8084 20.8387 49.17 22.4478 49.8688 23.73C50.107 24.1648 50.5041 24.5647 50.5041 25.0598C50.4428 25.4117 50.336 25.7541 50.1864 26.0786C49.8974 27.1322 50.7391 28.1954 51.7111 28.6969C52.683 29.1983 53.8011 29.3539 54.7921 29.8204C55.7235 30.2773 56.5034 30.9926 57.0385 31.8808C57.5737 32.7689 57.8414 33.7923 57.8097 34.8285C58.7118 34.9333 59.7631 34.9872 60.373 34.3144C60.6462 34.0129 60.7796 33.6098 61.0273 33.2893C61.345 32.8703 61.8405 32.6228 62.247 32.2864C64.3847 30.5313 62.8664 28.1066 64.0766 26.215C64.7119 25.2407 65.722 25.539 66.7448 25.5549C68.2116 25.5845 69.6781 25.4772 71.125 25.2344Z" fill="#4A4347"/>
<path opacity="0.1" d="M83.4905 59.5646C83.4905 59.5646 85.7362 71.1995 84.7166 75.6903C84.0936 78.3028 84.1858 81.0346 84.9834 83.5992" fill="black"/>
<path opacity="0.1" d="M47.1879 64.4616C47.1879 64.4616 46.2096 72.2182 47.8391 73.8495Z" fill="black"/>
<path d="M104.226 160.051C104.352 160.051 104.473 160.001 104.563 159.912C104.652 159.823 104.702 159.701 104.702 159.575C104.702 159.449 104.652 159.328 104.563 159.239C104.473 159.149 104.352 159.099 104.226 159.099C104.099 159.099 103.978 159.149 103.889 159.239C103.799 159.328 103.749 159.449 103.749 159.575C103.749 159.701 103.799 159.823 103.889 159.912C103.978 160.001 104.099 160.051 104.226 160.051Z" fill="black"/>
<g opacity="0.5">
<path opacity="0.5" d="M250.932 104.59V104.327L164.268 37.742C164.214 37.7016 164.147 37.6797 164.079 37.6797C164.011 37.6797 163.945 37.7016 163.89 37.742L77.2236 104.327V207.537H77.3887V207.702H251.1V104.492L250.932 104.59Z" fill="url(#paint1_linear)"/>
</g>
<path d="M247.94 204.658H80.2284V105.003L164.084 40.5761L247.94 105.003V204.658Z" fill="white"/>
<path d="M241.905 198.752H86.2635V106.269L164.084 46.4793L241.905 106.269V198.752Z" fill="#E0E0E0"/>
<path d="M190.485 45.0975L95.544 69.9665L127.2 190.617L222.141 165.748L190.485 45.0975Z" fill="#FFF363"/>
<path d="M213.635 63.427H115.486V188.155H213.635V63.427Z" fill="#F5F5F5"/>
<path opacity="0.05" d="M81.0225 105.162L164.878 154.989L81.0225 204.817V105.162Z" fill="black"/>
<path d="M80.3872 105.162L164.243 154.989L80.3872 204.817V105.162Z" fill="white"/>
<path opacity="0.05" d="M247.464 105.162L163.608 154.989L247.464 204.817V105.162Z" fill="black"/>
<path d="M248.099 105.162L164.243 154.989L248.099 204.817V105.162Z" fill="white"/>
<path opacity="0.05" d="M80.3872 203.23L164.243 137.851L248.099 203.23H80.3872Z" fill="black"/>
<path d="M80.3872 204.817L164.243 139.438L248.099 204.817H80.3872Z" fill="white"/>
<path d="M97.4284 212.386C97.4284 212.386 93.2165 198.104 98.2193 187.587C100.345 183.19 100.986 178.223 100.046 173.432C99.582 171.161 98.9111 168.937 98.0414 166.789" stroke="#535461" stroke-width="2" stroke-miterlimit="10"/>
<path d="M101.151 160.143C101.151 161.895 97.9747 166.97 97.9747 166.97C97.9747 166.97 94.7983 161.892 94.7983 160.143C94.7983 159.302 95.133 158.494 95.7287 157.899C96.3244 157.304 97.1323 156.97 97.9747 156.97C98.8171 156.97 99.625 157.304 100.221 157.899C100.816 158.494 101.151 159.302 101.151 160.143Z" fill="#FFF363"/>
<path d="M106.408 169.842C105.455 171.312 100.03 173.851 100.03 173.851C100.03 173.851 100.128 167.865 101.081 166.396C101.556 165.731 102.269 165.275 103.072 165.122C103.875 164.97 104.706 165.132 105.393 165.576C106.079 166.02 106.567 166.711 106.756 167.506C106.945 168.3 106.821 169.137 106.408 169.842Z" fill="#FFF363"/>
<path d="M106.167 186.412C104.601 187.199 98.6354 186.657 98.6354 186.657C98.6354 186.657 101.745 181.541 103.308 180.753C103.682 180.544 104.094 180.413 104.52 180.368C104.947 180.322 105.378 180.363 105.787 180.488C106.197 180.613 106.578 180.82 106.905 181.096C107.233 181.372 107.502 181.711 107.695 182.094C107.888 182.476 108.001 182.893 108.029 183.321C108.056 183.748 107.996 184.177 107.854 184.58C107.711 184.984 107.488 185.355 107.198 185.67C106.908 185.986 106.557 186.239 106.167 186.415V186.412Z" fill="#FFF363"/>
<path d="M103.168 198.914C101.758 199.955 95.7862 200.424 95.7862 200.424C95.7862 200.424 97.9842 194.858 99.3945 193.817C100.073 193.364 100.9 193.19 101.703 193.33C102.507 193.47 103.226 193.914 103.711 194.569C104.196 195.225 104.41 196.041 104.309 196.85C104.208 197.659 103.799 198.398 103.168 198.914V198.914Z" fill="#FFF363"/>
<path d="M93.3563 174.187C94.6268 175.406 100.468 176.672 100.468 176.672C100.468 176.672 99.0356 170.861 97.7777 169.642C97.1659 169.102 96.3693 168.818 95.5534 168.849C94.7374 168.88 93.9647 169.224 93.3958 169.809C92.8268 170.394 92.5053 171.176 92.4979 171.992C92.4906 172.808 92.798 173.595 93.3563 174.19V174.187Z" fill="#FFF363"/>
<path d="M90.0338 188.853C91.5997 189.64 97.5649 189.097 97.5649 189.097C97.5649 189.097 94.4553 183.981 92.8925 183.194C92.1463 182.857 91.2987 182.821 90.5266 183.094C89.7545 183.366 89.1176 183.926 88.7488 184.657C88.3799 185.387 88.3077 186.232 88.5471 187.014C88.7866 187.797 89.3192 188.457 90.0338 188.856V188.853Z" fill="#FFF363"/>
<path d="M88.7633 203.547C90.1736 204.588 96.1451 205.058 96.1451 205.058C96.1451 205.058 93.9471 199.491 92.5368 198.45C92.2038 198.178 91.819 197.977 91.4057 197.858C90.9925 197.739 90.5593 197.705 90.1325 197.758C89.7057 197.811 89.2942 197.95 88.9229 198.167C88.5516 198.384 88.2283 198.674 87.9725 199.02C87.7167 199.365 87.5338 199.759 87.4349 200.177C87.336 200.595 87.3231 201.029 87.397 201.453C87.471 201.876 87.6302 202.28 87.865 202.64C88.0999 203 88.4055 203.309 88.7633 203.547V203.547Z" fill="#FFF363"/>
<path opacity="0.5" d="M160.59 69.1397H121.203V72.3135H160.59V69.1397Z" fill="#FFF363"/>
<path opacity="0.5" d="M206.33 81.8347H121.203V85.0084H206.33V81.8347Z" fill="#FFF363"/>
<path opacity="0.5" d="M206.33 90.0864H121.203V93.2601H206.33V90.0864Z" fill="#FFF363"/>
<path opacity="0.4" d="M206.33 98.3381H121.203V101.512H206.33V98.3381Z" fill="#FFF363"/>
<path opacity="0.4" d="M206.33 106.59H121.203V109.763H206.33V106.59Z" fill="#FFF363"/>
<path opacity="0.3" d="M169.802 114.841H121.203V118.015H169.802V114.841Z" fill="#FFF363"/>
<path opacity="0.3" d="M187.589 123.093H121.203V126.267H187.589V123.093Z" fill="#FFF363"/>
</g>
<defs>
<linearGradient id="paint0_linear" x1="33.3136" y1="112.407" x2="101.294" y2="112.407" gradientUnits="userSpaceOnUse">
<stop stop-color="#808080" stop-opacity="0.25"/>
<stop offset="0.54" stop-color="#808080" stop-opacity="0.12"/>
<stop offset="1" stop-color="#808080" stop-opacity="0.1"/>
</linearGradient>
<linearGradient id="paint1_linear" x1="110807" y1="125947" x2="110807" y2="34858.2" gradientUnits="userSpaceOnUse">
<stop stop-color="#808080" stop-opacity="0.25"/>
<stop offset="0.54" stop-color="#808080" stop-opacity="0.12"/>
<stop offset="1" stop-color="#808080" stop-opacity="0.1"/>
</linearGradient>
<clipPath id="clip0">
<rect width="305" height="231" fill="white"/>
</clipPath>
</defs>
</svg>
