<svg width="53" height="53" viewBox="0 0 53 53" fill="none" xmlns="http://www.w3.org/2000/svg">
<g clip-path="url(#clip0)">
<path d="M51.4519 13.348L28.6803 0.566735C27.3364 -0.188912 25.6957 -0.188912 24.3521 0.566735L1.5801 13.348C0.642015 13.8721 0.113235 14.9102 0.240901 15.9768C0.368567 17.0439 1.1281 17.9276 2.16323 18.2153C2.39958 18.2778 2.64284 18.3106 2.88739 18.3124C3.34026 18.3136 3.78537 18.1946 4.17699 17.9677L26.516 5.43358L48.855 17.9677C49.467 18.3141 50.1916 18.4034 50.8692 18.2153C51.9044 17.9276 52.6635 17.0439 52.7911 15.9768C52.9192 14.9102 52.39 13.8721 51.4519 13.348ZM50.9218 16.095C50.6825 16.519 50.1451 16.6691 49.7207 16.431L27.3993 3.88778C26.8529 3.57207 26.1792 3.57207 25.6327 3.88778L3.31136 16.431C2.8848 16.6747 2.34093 16.5263 2.09681 16.0998C1.85312 15.6728 2.00149 15.1289 2.42805 14.8852L25.2178 2.10348C26.0239 1.65017 27.0081 1.65017 27.8147 2.10348L50.5863 14.8852C50.7924 14.9999 50.9438 15.1927 51.0068 15.42C51.0698 15.6473 51.0392 15.8906 50.9218 16.095Z" fill="black"/>
<path d="M5.31642 19.8491C4.82861 19.8491 4.43311 20.2446 4.43311 20.7324V52.1167C4.43311 52.6045 4.82861 53 5.31642 53C5.80422 53 6.19973 52.6045 6.19973 52.1167V20.7324C6.19973 20.2446 5.80422 19.8491 5.31642 19.8491Z" fill="black"/>
<path d="M47.7155 19.8491C47.2277 19.8491 46.8322 20.2446 46.8322 20.7324V52.1167C46.8322 52.6045 47.2277 53 47.7155 53C48.2033 53 48.5988 52.6045 48.5988 52.1167V20.7324C48.5988 20.2446 48.2033 19.8491 47.7155 19.8491Z" fill="black"/>
<path d="M44.1823 18.5509H8.84974C8.36194 18.5509 7.96643 18.9464 7.96643 19.4342V52.1167C7.96643 52.6046 8.36194 53.0001 8.84974 53.0001C9.33755 53.0001 9.73306 52.6046 9.73306 52.1167V23.8507H43.299V52.1167C43.299 52.6046 43.6945 53.0001 44.1823 53.0001C44.6701 53.0001 45.0656 52.6046 45.0656 52.1167V19.4342C45.0656 18.9464 44.6701 18.5509 44.1823 18.5509ZM9.73306 22.0841V20.3175H43.299V22.0841H9.73306Z" fill="black"/>
<path d="M33.5825 13.251C34.0703 13.251 34.4658 12.8555 34.4658 12.3677C34.4658 11.8799 34.0703 11.4844 33.5825 11.4844H19.4495C18.9617 11.4844 18.5662 11.8799 18.5662 12.3677V15.9009C18.5662 16.3887 18.9617 16.7843 19.4495 16.7843H33.5825C34.0703 16.7843 34.4658 16.3887 34.4658 15.9009C34.4658 15.4131 34.0703 15.0176 33.5825 15.0176H20.3328V13.251H33.5825Z" fill="black"/>
<path d="M40.649 47.7002H39.7656V37.9837C39.7656 37.4959 39.3701 37.1004 38.8823 37.1004H36.2324V27.384C36.2324 26.8962 35.8369 26.5007 35.3491 26.5007H22.9827C22.4949 26.5007 22.0994 26.8962 22.0994 27.384V31.8006H17.6828C17.195 31.8006 16.7995 32.1961 16.7995 32.6839V37.1004H14.1496C13.6618 37.1004 13.2663 37.4959 13.2663 37.9837V47.7002H12.3829C11.8951 47.7002 11.4996 48.0957 11.4996 48.5835V52.1167C11.4996 52.6045 11.8951 53 12.3829 53C12.8708 53 13.2663 52.6045 13.2663 52.1167V49.4668H15.9162V52.1167C15.9162 52.6045 16.3117 53 16.7995 53C17.2873 53 17.6828 52.6045 17.6828 52.1167V49.4668H19.4494V52.1167C19.4494 52.6045 19.845 53 20.3328 53C20.8206 53 21.2161 52.6045 21.2161 52.1167V49.4668H23.866V52.1167C23.866 52.6045 24.2615 53 24.7493 53C25.2371 53 25.6326 52.6045 25.6326 52.1167V49.4668H27.3993V52.1167C27.3993 52.6045 27.7948 53 28.2826 53C28.7704 53 29.1659 52.6045 29.1659 52.1167V49.4668H31.8158V52.1167C31.8158 52.6045 32.2113 53 32.6991 53C33.1869 53 33.5825 52.6045 33.5825 52.1167V49.4668H35.3491V52.1167C35.3491 52.6045 35.7446 53 36.2324 53C36.7202 53 37.1157 52.6045 37.1157 52.1167V49.4668H39.7656V52.1167C39.7656 52.6045 40.1612 53 40.649 53C41.1368 53 41.5323 52.6045 41.5323 52.1167V48.5835C41.5323 48.0957 41.1368 47.7002 40.649 47.7002ZM31.8158 38.867H33.5825V40.6337H31.8158V38.867ZM30.0492 28.2673V30.0339H28.2826V28.2673H30.0492ZM23.866 28.2673H26.516V30.9172C26.516 31.4051 26.9115 31.8006 27.3993 31.8006H30.9325C31.4203 31.8006 31.8158 31.4051 31.8158 30.9172V28.2673H34.4658V37.1004H23.866V28.2673ZM19.4494 38.867H21.2161V40.6337H19.4494V38.867ZM18.5661 33.5672H22.0994V37.1004H18.5661V33.5672ZM15.0329 47.7002V38.867H17.6828V41.517C17.6828 42.0048 18.0783 42.4003 18.5661 42.4003H22.0994C22.5872 42.4003 22.9827 42.0048 22.9827 41.517V38.867H25.6326V47.7002H15.0329ZM27.3993 47.7002V38.867H30.0492V41.517C30.0492 42.0048 30.4447 42.4003 30.9325 42.4003H34.4658C34.9536 42.4003 35.3491 42.0048 35.3491 41.517V38.867H37.999V47.7002H27.3993Z" fill="black"/>
</g>
<defs>
<clipPath id="clip0">
<rect width="53" height="53" fill="white"/>
</clipPath>
</defs>
</svg>
