<svg width="45" height="49" viewBox="0 0 45 49" fill="none" xmlns="http://www.w3.org/2000/svg">
<path d="M36.561 27.5101L33.298 29.5331L31.073 34.4001L33.298 39.2671H33.41L36.41 41.3671L39.41 39.2671H39.522V29.5341L36.561 27.5101Z" fill="#333333"/>
<path d="M10.98 29.5331L7.717 27.5101L4.751 29.5331V39.2661H4.863L7.863 41.3661L10.863 39.2661H10.975L13.2 34.3991L10.98 29.5331Z" fill="#333333"/>
<path d="M22.136 3.57715L4.751 17.0981V19.7981L22.136 24.2591L39.524 19.8001V17.1001L22.136 3.57715Z" fill="#333333"/>
<path d="M40.786 20.7662L22.138 6.4752L3.486 20.7662L0 16.2172L20.396 0.591198C20.8962 0.207793 21.5088 0 22.139 0C22.7692 0 23.3818 0.207793 23.882 0.591198L44.273 16.2172L40.786 20.7662Z" fill="#242424"/>
<path d="M10.98 19.7992H4.751V29.5332H10.98L13.205 24.6662L10.98 19.7992Z" fill="#333333"/>
<path d="M13.205 44.1332L10.98 39.2662H4.751V49.0002H10.98L13.205 44.1332Z" fill="#333333"/>
<path d="M33.298 19.7992L31.073 24.6662L33.298 29.5332H39.527V19.7992H33.298Z" fill="#333333"/>
<path d="M39.527 39.2662H33.298L31.073 44.1332L33.298 49.0002H39.527V39.2662Z" fill="#333333"/>
<path fill-rule="evenodd" clip-rule="evenodd" d="M10 19H22.5H22.5011L35 19.001V49L22.5011 49H10V19Z" fill="#525252"/>
</svg>
