<svg width="180" height="180" viewBox="0 0 180 180" fill="none" xmlns="http://www.w3.org/2000/svg">
<path d="M174.76 31.9936C174.749 31.9936 174.738 31.9922 174.727 31.9922H126.914V26.7188C126.914 17.9956 119.817 10.8984 111.094 10.8984H68.9062C60.1831 10.8984 53.0859 17.9956 53.0859 26.7188V31.9922H5.27344C2.33734 31.9922 0 34.3982 0 37.2656V153.281C0 162.004 7.09717 169.102 15.8203 169.102H164.18C172.903 169.102 180 162.004 180 153.281V37.3769C180 37.37 180 37.3631 180 37.3563C179.798 33.8928 177.668 32.0128 174.76 31.9936V31.9936ZM63.6328 26.7188C63.6328 23.8115 65.999 21.4453 68.9062 21.4453H111.094C114.001 21.4453 116.367 23.8115 116.367 26.7188V31.9922H63.6328V26.7188ZM167.41 42.5391L151.033 91.6672C150.315 93.8246 148.304 95.2734 146.032 95.2734H116.367V90C116.367 87.0872 114.007 84.7266 111.094 84.7266H68.9062C65.9935 84.7266 63.6328 87.0872 63.6328 90V95.2734H33.9684C31.6956 95.2734 29.6851 93.8246 28.9668 91.6672L12.5903 42.5391H167.41ZM105.82 95.2734V105.82H74.1797V95.2734H105.82ZM169.453 153.281C169.453 156.189 167.087 158.555 164.18 158.555H15.8203C12.9131 158.555 10.5469 156.189 10.5469 153.281V69.7618L18.961 95.0029C21.1171 101.474 27.1486 105.82 33.9684 105.82H63.6328V111.094C63.6328 114.007 65.9935 116.367 68.9062 116.367H111.094C114.007 116.367 116.367 114.007 116.367 111.094V105.82H146.032C152.851 105.82 158.883 101.474 161.039 95.0029L169.453 69.7618V153.281Z" fill="white"/>
</svg>
